<?xml version="1.0" encoding="UTF-8" standalone="no"?>
<svg
   xmlns:dc="http://purl.org/dc/elements/1.1/"
   xmlns:cc="http://creativecommons.org/ns#"
   xmlns:rdf="http://www.w3.org/1999/02/22-rdf-syntax-ns#"
   xmlns:svg="http://www.w3.org/2000/svg"
   xmlns="http://www.w3.org/2000/svg"
   viewBox="0 0 3478.6667 2666.6667"
   height="2666.6667"
   width="3478.6667"
   xml:space="preserve"
   id="svg2"
   version="1.1"><metadata
     id="metadata8"><rdf:RDF><cc:Work
         rdf:about=""><dc:format>image/svg+xml</dc:format><dc:type
           rdf:resource="http://purl.org/dc/dcmitype/StillImage" /></cc:Work></rdf:RDF></metadata><defs
     id="defs6" /><g
     transform="matrix(1.3333333,0,0,-1.3333333,0,2666.6667)"
     id="g10"><g
       transform="scale(0.1)"
       id="g12"><g
         transform="scale(1.60061)"
         id="g14"><path
           id="path16"
           style="fill:#f9f9f9;fill-opacity:1;fill-rule:nonzero;stroke:none"
           d="M 0,12495.2 H 16300 V 0 H 0 v 12495.2" /></g><g
         transform="scale(1.56134)"
         id="g18"><path
           id="path20"
           style="fill:#e2fafa;fill-opacity:1;fill-rule:nonzero;stroke:none"
           d="m 15849.4,2472.5 c -160.5,1230.86 450.6,2527.45 25.9,3693.82 -134.9,370.42 -366.1,696.5 -554.5,1042.77 -284.5,522.75 -473,1097.53 -553.3,1687.22 -52.6,385.78 -59.5,778.6 -147,1157.99 -242.8,1052.4 -1152.4,1919 -2215.4,2110.5 -856.7,154.4 -1740,-101.9 -2518.9,-490.6 C 9107.38,11285.5 8401.13,10766.5 7640.37,10343.5 6830.81,9893.36 5960.1,9553.18 5059.74,9335.27 4726.1,9254.52 4383.87,9188.87 4078.12,9032.78 3318.81,8645.15 2935,7790.3 2662.23,6982.57 2389.45,6174.83 2143.37,5305.13 1512.24,4731.97 1343.05,4578.38 1150.25,4450.74 993.412,4284.53 477.273,3737.5 454.088,2857.93 754.276,2168.33 1027.61,1540.47 1668.47,694.214 2296.48,376.793 c 22.44,-11.336 45.33,-21.904 68.59,-31.896 H 4144.2 c 336.39,61.933 658.17,129.121 928.92,155.38 1058.71,102.797 2125.07,6.66 3186.98,-54.953 2160.8,-125.471 4327.1,-107.858 6491.4,-90.245 316.7,2.565 658.6,13.388 909.2,207.004 267.2,206.361 360.1,573.417 346.6,910.757 -13.4,337.34 -114.3,664.82 -157.9,999.66" /></g><g
         transform="scale(1.41553)"
         id="g22"><path
           id="path24"
           style="fill:#9cdedc;fill-opacity:1;fill-rule:nonzero;stroke:none"
           d="m 15917.4,4904.04 v 0 c -112.7,-14.2 -284.4,-243.59 -304.6,-266.69 -11.4,-13.07 -23.2,-26.56 -35.4,-41.11 l 74.7,-92.48 -123.5,30.31 c -207.2,-281.52 -293.3,-646.61 -230.8,-991.29 8.1,-44.65 17.9,-85.62 27.4,-125.25 15,-62.88 29.2,-122.29 27,-162.84 -4.2,-75.24 -69.8,-172.45 -139.4,-275.38 -99.4,-147.08 -223,-330.19 -240.2,-564.1 -12.7,-173.29 37.6,-327.16 78,-450.85 27.6,-84.42 53.7,-164.18 50.4,-220.63 -3.6,-61.95 -45.4,-143.83 -89.6,-230.51 -30,-58.78 -64,-125.33 -91.9,-197.03 -112.4,-288.16 -108.5,-617.086 10.9,-902.492 l 549.6,229.878 c -59.5,142.069 -61.5,312.605 -5.6,456.084 17.2,43.94 41.7,91.98 67.6,142.77 63.6,124.76 142.8,279.97 153.7,466.75 9.8,168.92 -37.2,313.03 -78.8,440.2 -27.9,85.41 -54.2,166.01 -50.1,222.25 5.6,75.59 70.7,172.09 139.7,274.31 89.3,132.18 197.8,292.97 231.3,493.38 -107.7,-45.14 -291.3,-123.34 -316.4,-142.98 -26.8,-20.98 207,171.17 326.7,269.51 -0.4,109.85 -24.1,208.9 -43.6,290.35 -7.9,33.13 -15.4,64.5 -20.5,92.83 -35.3,194.55 21.3,409.81 147.7,561.91 8.7,10.38 18.6,21.76 29.2,33.84 46.7,53.26 104.7,119.53 146.9,210.87 10.7,23.39 19.8,46.84 27.3,70.22 64.9,203.32 -106,404.8 -317.7,378.17" /></g><g
         transform="scale(1.49378)"
         id="g26"><path
           id="path28"
           style="fill:#74bdc1;fill-opacity:1;fill-rule:nonzero;stroke:none"
           d="m 16103.2,3778.54 v 0 c -89.8,20.42 -284.3,-107.05 -306.2,-119.03 -13.5,-7.5 -27.5,-15.2 -42.5,-23.9 -92.8,-54.29 -176.2,-123.24 -247.6,-202.97 l 87.6,-215.36 -139.4,152.83 c -102.4,-133.55 -173.1,-291.34 -201.5,-458.23 -6.2,-36.22 -10.1,-70.23 -13.9,-103.1 -5.9,-52.15 -11.5,-101.35 -24.5,-131.68 -24,-56.23 -101,-112.19 -182.5,-171.44 -116.6,-84.68 -261.6,-190.06 -339.5,-363.71 -57.7,-128.67 -62,-259.94 -65.4,-365.52 -2.4,-72.03 -4.6,-140.04 -22.8,-182.22 -19.8,-46.26 -74.4,-97.13 -132.2,-151.02 -39.1,-36.49 -83.5,-77.86 -124.7,-124.79 -165.5,-188.71 -253.6,-440.692 -241.6,-691.399 l 482.9,23.096 c -6,124.851 39.7,255.458 122.1,349.381 25.2,28.782 57.2,58.642 91.1,90.172 83.1,77.52 186.5,173.99 246.5,313.5 54.3,126.06 58.3,249.04 61.8,357.55 2.4,72.84 4.7,141.66 23.4,183.36 25.2,56.17 101.6,111.73 182.6,170.51 118.6,86.29 266.4,193.67 342.8,372.54 4.9,11.18 9.2,22.43 13.2,33.61 h -211.2 l 236.8,90.51 c 11.1,51.28 16.7,100.01 21.6,142.79 3.1,27.52 6.1,53.49 10,76.52 27,158.19 129.8,306.74 268.4,387.67 9.4,5.56 20.2,11.45 31.6,17.74 50.3,27.65 113,62.13 170.5,120.17 14.6,14.86 28,30.26 40.2,45.99 4.3,5.62 8.3,11.31 11.9,17.14 l -177.5,45.59 213.4,56.56 c 11.4,113.61 -61.6,229.09 -185.4,257.14" /></g><g
         transform="scale(1.51082)"
         id="g30"><path
           id="path32"
           style="fill:#8fd0d6;fill-opacity:1;fill-rule:nonzero;stroke:none"
           d="m 16155.7,2596.08 v 0 c -63.7,28.99 -228,-35.94 -246.2,-41.5 -11.2,-3.44 -22.8,-7.01 -35.2,-11.25 -219,-73.74 -399.9,-246.16 -484.1,-461.34 -10.2,-26.02 -18.4,-50.77 -26.2,-74.6 -12.4,-37.86 -24.2,-73.67 -38.5,-94.19 -26.5,-38.19 -92.4,-67.97 -162.2,-99.48 -99.8,-45.07 -223.9,-101.2 -308.5,-218.42 -62.8,-86.84 -86.2,-183.88 -105,-261.85 -12.8,-53.28 -24.9,-103.52 -44.9,-132.11 -22,-31.38 -70.4,-60.83 -121.7,-92.01 -34.7,-21.18 -74.1,-45.14 -111.9,-73.73 -152.2,-114.838 -256.5,-288.785 -286.2,-477.225 l 362.8,-57.122 c 14.8,93.857 68.8,184.006 144.7,241.196 23.2,17.537 51.6,34.814 81.6,53.08 73.7,44.877 165.5,100.743 231.7,195.326 59.7,85.455 81.7,176.335 101,256.485 13,53.88 25.3,104.71 45.6,132.84 27.4,37.93 92.8,67.51 162.1,98.82 101.6,45.94 228,103.06 312.5,224.38 20,28.86 35.6,58.58 48.3,87.57 l -127.1,48.92 158.2,33.49 c 2.2,6.62 4.4,13.11 6.5,19.39 6.5,19.99 12.7,38.86 19.2,55.4 44.4,113.52 143.8,208.24 259.4,247.09 7.8,2.71 16.8,5.43 26.2,8.34 41.7,12.84 93.6,28.86 145.3,63.21 13.3,8.8 25.6,18.2 37,28.06 99.9,85.65 75.4,246.69 -44.4,301.23" /></g><path
         id="path34"
         style="fill:#ffffff;fill-opacity:1;fill-rule:nonzero;stroke:none"
         d="m 6362.67,14100.8 c 0.3,0.2 0.62,0.4 0.92,0.5 -0.28,-0.1 -0.63,-0.3 -0.92,-0.5 m 1544.49,476.5 c 0.62,0.1 1.23,0.3 1.85,0.4 -0.6,-0.1 -1.25,-0.3 -1.85,-0.4 m 8.62,2 c 0.73,0.2 1.46,0.4 2.19,0.6 -0.78,-0.2 -1.42,-0.4 -2.19,-0.6 m 7.13,1.8 c 0.92,0.2 1.81,0.4 2.73,0.6 -0.95,-0.2 -1.79,-0.4 -2.73,-0.6 m 8.59,2.1 c 1.16,0.2 2.37,0.6 3.53,0.8 -1.12,-0.2 -2.41,-0.6 -3.53,-0.8 m 6.84,1.6 c 2.13,0.6 4.19,1.1 6.32,1.6 -2.15,-0.5 -4.17,-1 -6.32,-1.6 m 8.62,2.1 c 1.54,0.4 3.04,0.8 4.57,1.2 -1.45,-0.4 -3.11,-0.8 -4.57,-1.2 m 5.11,1.3 c 3.26,0.8 6.48,1.6 9.73,2.4 -3.17,-0.8 -6.56,-1.6 -9.73,-2.4 m 10,2.5 c 419.96,103.4 835.69,223.9 1245.92,360.9 0.04,0 0.06,0 0.1,0 -410.29,-137 -826,-257.5 -1246.02,-360.9" /><path
         id="path36"
         style="fill:#f1fdfd;fill-opacity:1;fill-rule:nonzero;stroke:none"
         d="m 6668.96,11004.2 c -50.66,0 -101.68,2.4 -152.91,7.6 -167.37,17 -332.81,64.3 -478.18,149 -112.63,65.6 -211.62,152.3 -322.55,220.8 -309.44,190.8 -681.54,224.5 -1050.21,224.5 -84.63,0 -169.09,-1.8 -252.56,-3.8 109.74,274.6 231.32,545.7 369,804.9 219.92,-19.6 433.97,-66.6 635.36,-160.9 209.25,-98 397.64,-244.6 620.7,-304.9 84.45,-22.8 168.9,-32.4 253.53,-32.4 416.64,0 836.12,233.3 1265.07,272.4 58.25,5.3 116.67,6.9 175.17,6.9 50.02,0 100.11,-1.2 150.18,-2.4 50.08,-1.2 100.15,-2.5 150.17,-2.5 61.51,0 122.94,1.9 184.16,7.9 219.02,21.3 449.85,110.2 558.94,301.3 41.99,73.6 63.06,163.2 37.73,244.1 -12.34,39.3 -33.07,72 -59.89,99.2 h 546.87 c -32.79,142.7 -160.53,249.2 -313.22,249.2 -28.03,0 -55.22,-3.6 -81.14,-10.4 -75.36,161.2 -238.9,272.9 -428.56,272.9 -49.03,0 -96.33,-7.5 -140.8,-21.3 -99.63,164.9 -278.68,276.6 -484.2,281.9 -1.11,3.7 -2.33,7.5 -3.64,11.2 -55.68,157.9 -255.34,198.9 -421.54,218.6 -397.56,46.9 -792.85,113 -1184.2,197.3 39.48,22.6 79.57,44.6 120.43,65.5 0.29,0.2 0.64,0.4 0.92,0.5 1.25,0.6 2.49,1.3 3.74,1.9 477.37,243.7 1011.7,346.2 1532.64,472.3 2.39,0.6 4.8,1.2 7.19,1.8 0.6,0.1 1.25,0.3 1.85,0.4 2.26,0.5 4.51,1.1 6.77,1.6 0.77,0.2 1.41,0.4 2.19,0.6 1.64,0.4 3.3,0.8 4.94,1.2 0.94,0.2 1.78,0.4 2.73,0.6 1.96,0.5 3.9,1 5.86,1.5 1.12,0.2 2.41,0.6 3.53,0.8 1.1,0.3 2.21,0.6 3.31,0.8 2.15,0.6 4.17,1.1 6.32,1.6 0.75,0.2 1.55,0.4 2.3,0.5 1.46,0.4 3.12,0.8 4.57,1.2 0.16,0 0.38,0.1 0.54,0.1 3.17,0.8 6.56,1.6 9.73,2.4 0.08,0 0.19,0.1 0.27,0.1 420.02,103.4 835.73,223.9 1246.02,360.9 203.63,17.4 406.69,28.3 608.35,28.3 431.86,0 857.16,-50.1 1267.06,-193.6 95.4,-33.4 196.6,-78.2 243.6,-167.7 78.1,-149.1 -42,-333.5 -190.9,-411.9 -148.9,-78.4 -323.7,-94.1 -476.1,-165.6 -152.3,-71.4 -287.4,-239.1 -230.5,-397.5 61.9,-172.5 287.6,-202.6 470.4,-215.5 776.3,-55 1536.3,-324.4 2174,-770.4 123.9,-86.7 245.8,-182.7 325.7,-311 192.9,-310.2 77.2,-746.4 -196,-988.9 -236.1,-209.6 -559.2,-293.3 -877.7,-293.3 -49.9,0 -99.7,2.1 -148.9,6 -364.1,29.1 -713.6,149.7 -1063.6,254.1 -574.4,171.3 -1177.25,300.6 -1772.77,300.6 -311.85,0 -621.77,-35.5 -924.32,-119 -27.96,-7.7 -55.92,-15.8 -83.79,-24.3 -77.64,110.7 -206.22,183.1 -351.72,183.1 -91.28,0 -175.91,-28.5 -245.48,-77.1 0.3,1.1 0.46,1.6 0.46,1.6 0,0 -184.28,-104.2 -239.65,-251.6 -47.28,-125.8 -257.99,-103.8 -389.75,-272 -2.35,-3 -4.7,-6 -7.08,-9 -141.9,-32.7 -285.06,-52.7 -430.44,-52.7" /><g
         transform="scale(1.17499)"
         id="g38"><path
           id="path40"
           style="fill:#74bdc1;fill-opacity:1;fill-rule:nonzero;stroke:none"
           d="m 16300,992.688 c 0,0 -1228.2,1054.902 -2550.7,314.892 0,0 0,1338.39 -976.2,1480.09 -976.3,141.71 -1842.2,-629.87 -1621.8,-1464.34 0,0 -2031.17,393.62 -2409.04,-566.813 L 16300,693.537 v 299.151" /></g><g
         transform="scale(1.41695)"
         id="g42"><path
           id="path44"
           style="fill:#9de0de;fill-opacity:1;fill-rule:nonzero;stroke:none"
           d="m 16300,423.444 c -633,1205.266 -1794.9,659.026 -1794.9,659.026 0,0 -199.5,1109.91 -1682.3,789.08 0,0 -624.4,-182.08 -711.1,-945.194 0,0 -867.1,312.154 -1031.9,-546.315 l 5220.2,43.403" /></g><path
         id="path46"
         style="fill:#333333;fill-opacity:1;fill-rule:nonzero;stroke:none"
         d="m 7735.88,11589.5 c 0,0 -184.28,-104.2 -239.65,-251.6 -47.28,-125.8 -257.99,-103.8 -389.75,-272 -146.34,-186.7 -354.45,-466.1 122.83,-654.4 296.47,-117.1 768.54,-207.1 875.58,-128.1 107.03,78.9 362.21,47.3 304.8,877.3 0,0 -697.85,291.3 -704.87,293 -7.02,1.8 31.06,135.8 31.06,135.8" /><path
         id="path48"
         style="fill:#333333;fill-opacity:1;fill-rule:nonzero;stroke:none"
         d="m 8410.2,11235.7 c 0,-237.1 -192.2,-429.3 -429.3,-429.3 -237.09,0 -429.3,192.2 -429.3,429.3 0,237.1 192.21,429.3 429.3,429.3 237.1,0 429.3,-192.2 429.3,-429.3" /><path
         id="path50"
         style="fill:#ffc0bb;fill-opacity:1;fill-rule:nonzero;stroke:none"
         d="m 9561.05,9938.5 -31.3,-14.7 c -133.45,-32 -894.21,-213.3 -929.31,-190.1 -38.48,25.4 -210.43,380.4 -210.43,380.4 l -195.26,-317.9 c 0,0 176.38,-334.2 291.15,-387.1 112,-51.6 900.67,234.9 1122.85,369.9 l 22.46,10 c 21.63,-4.6 78.34,-12.6 78.34,-12.6 226.71,-25.7 203.39,-27.1 205.21,-18.3 1.82,8.8 -89.75,48.4 -84.37,56.9 5.38,8.5 138.69,-0.5 132.33,10.8 -6.34,11.2 -129.19,35.8 -126.84,43.7 2.35,7.9 130.97,-2.9 130.52,16 -0.44,18.8 -141.46,25.4 -136.23,40.2 5.23,14.8 149.74,4.1 146.8,21.3 -2.48,14.5 -164.02,30.8 -215.37,35.7 -6.63,0.6 -10.27,9 -6.42,14.7 59.27,87.6 59,98.4 48.39,103.7 -7.56,3.9 -82.08,-52.5 -154.73,-100.7 l -87.79,-61.9" /><path
         id="path52"
         style="fill:#e03268;fill-opacity:1;fill-rule:nonzero;stroke:none"
         d="m 5978.65,8445.7 h 4856.65 c 201.6,0 364.9,-163.4 364.9,-364.9 V 995.301 c 0,-201.5 -163.3,-364.899 -364.9,-364.899 H 5978.65 c -201.53,0 -364.9,163.399 -364.9,364.899 V 8080.8 c 0,201.5 163.37,364.9 364.9,364.9" /><path
         id="path54"
         style="fill:#f3fcff;fill-opacity:1;fill-rule:nonzero;stroke:none"
         d="m 6025.1,8072.2 h 4763.8 V 1407.9 H 6025.1 v 6664.3" /><path
         id="path56"
         style="fill:#cfe4ff;fill-opacity:1;fill-rule:nonzero;stroke:none"
         d="M 9595.32,7900.5 H 7015.95 v 296.3 c 0,271.2 219.86,491.1 491.07,491.1 h 1597.23 c 271.21,0 491.07,-219.9 491.07,-491.1 v -296.3" /><path
         id="path58"
         style="fill:#cfe4ff;fill-opacity:1;fill-rule:nonzero;stroke:none"
         d="M 8879.41,7119.1 H 6373.74 v 186 h 2505.67 v -186" /><path
         id="path60"
         style="fill:#cfe4ff;fill-opacity:1;fill-rule:nonzero;stroke:none"
         d="M 8879.41,6436.3 H 6373.74 v 186 h 2505.67 v -186" /><path
         id="path62"
         style="fill:#cfe4ff;fill-opacity:1;fill-rule:nonzero;stroke:none"
         d="M 8879.41,5753.5 H 6373.74 v 186 h 2505.67 v -186" /><path
         id="path64"
         style="fill:#cfe4ff;fill-opacity:1;fill-rule:nonzero;stroke:none"
         d="M 8879.41,5070.7 H 6373.74 v 186 h 2505.67 v -186" /><path
         id="path66"
         style="fill:#cfe4ff;fill-opacity:1;fill-rule:nonzero;stroke:none"
         d="M 8879.41,4387.9 H 6373.74 v 186 h 2505.67 v -186" /><path
         id="path68"
         style="fill:#cfe4ff;fill-opacity:1;fill-rule:nonzero;stroke:none"
         d="M 8879.41,3705.1 H 6373.74 v 186 h 2505.67 v -186" /><path
         id="path70"
         style="fill:#cfe4ff;fill-opacity:1;fill-rule:nonzero;stroke:none"
         d="M 8879.41,3022.3 H 6373.74 v 186 h 2505.67 v -186" /><path
         id="path72"
         style="fill:#cfe4ff;fill-opacity:1;fill-rule:nonzero;stroke:none"
         d="M 8879.41,2339.5 H 6373.74 v 186 h 2505.67 v -186" /><path
         id="path74"
         style="fill:#cfe4ff;fill-opacity:1;fill-rule:nonzero;stroke:none"
         d="M 10866.3,5941.1 H 9445.01 v 1364 h 1421.29 v -1364" /><path
         id="path76"
         style="fill:#cfe4ff;fill-opacity:1;fill-rule:nonzero;stroke:none"
         d="M 10866.3,4140.3 H 9445.01 v 1364 h 1421.29 v -1364" /><path
         id="path78"
         style="fill:#cfe4ff;fill-opacity:1;fill-rule:nonzero;stroke:none"
         d="M 10866.3,2339.5 H 9445.01 V 3703.6 H 10866.3 V 2339.5" /><path
         id="path80"
         style="fill:#ffc0bb;fill-opacity:1;fill-rule:nonzero;stroke:none"
         d="m 9252.3,7004.3 -11.11,-269 -233.62,89.9 31.09,193.5 213.64,-14.4" /><path
         id="path82"
         style="fill:#122f5b;fill-opacity:1;fill-rule:nonzero;stroke:none"
         d="m 9446.29,6402.7 -542.32,180.4 c -16.76,5.6 -25.82,23.7 -20.24,40.4 5.57,16.8 23.68,25.9 40.44,20.3 l 542.31,-180.5 c 16.76,-5.5 25.82,-23.6 20.25,-40.4 -5.58,-16.8 -23.68,-25.8 -40.44,-20.2" /><path
         id="path84"
         style="fill:#55769f;fill-opacity:1;fill-rule:nonzero;stroke:none"
         d="m 8982.77,6829.1 -76.14,-162.2 c -9.38,-20 -4.03,-42.7 11.26,-47.8 l 531.37,-176.8 c 13.81,-4.6 30.32,-0.6 42.96,13.2 12.96,14.2 22.76,38.7 10.16,80.2 -24.93,82.2 -172.95,150.1 -231.59,231.8 -1.2,1.7 -2.85,2.9 -4.8,3.6 l -244.53,81.3 c -13.82,4.6 -30.21,-5.3 -38.69,-23.3" /><path
         id="path86"
         style="fill:#ffffff;fill-opacity:1;fill-rule:nonzero;stroke:none"
         d="m 9198.8,6684.6 v 0 c -3.06,3.6 -2.31,10.5 1.55,14.7 18.13,19.7 69.47,65.1 131.98,31.5 3.61,-2 4.52,-7.9 2.11,-12.9 l -0.07,-0.2 c -2.32,-4.9 -6.88,-7.1 -10.39,-5.2 -56.09,29.9 -100.32,-10.5 -115.22,-27 -3.17,-3.6 -7.42,-4 -9.96,-0.9" /><path
         id="path88"
         style="fill:#ffffff;fill-opacity:1;fill-rule:nonzero;stroke:none"
         d="m 9246.76,6644.5 v 0 c -3.06,3.6 -2.31,10.5 1.55,14.7 18.13,19.7 69.47,65.1 131.98,31.5 3.61,-2 4.51,-7.9 2.11,-12.9 l -0.08,-0.2 c -2.32,-4.9 -6.88,-7.1 -10.38,-5.2 -56.09,29.9 -100.33,-10.4 -115.22,-27 -3.17,-3.6 -7.42,-3.9 -9.96,-0.9" /><path
         id="path90"
         style="fill:#ffffff;fill-opacity:1;fill-rule:nonzero;stroke:none"
         d="m 9291.34,6607.1 v 0 c -3.06,3.7 -2.31,10.6 1.55,14.8 18.13,19.6 69.47,65.1 131.98,31.4 3.61,-1.9 4.51,-7.9 2.12,-12.9 l -0.08,-0.1 c -2.33,-4.9 -6.89,-7.1 -10.39,-5.2 -56.09,29.9 -100.32,-10.5 -115.21,-27.1 -3.18,-3.5 -7.43,-3.9 -9.97,-0.9" /><path
         id="path92"
         style="fill:#122f5b;fill-opacity:1;fill-rule:nonzero;stroke:none"
         d="m 7480.13,8884.9 c 0,0 -109.03,-513 385.64,-634.9 494.67,-121.8 1118.95,-134.2 1118.95,-134.2 l 11.54,-1195 260.38,-29.8 c 0,0 776.96,1610.4 -137.74,1927.5 l -836.94,48.7 -342.96,46.4 c 0,0 -343.18,108.1 -348.32,92 -5.13,-16.2 -102.87,-129.4 -110.55,-120.7" /><path
         id="path94"
         style="fill:#ffc0bb;fill-opacity:1;fill-rule:nonzero;stroke:none"
         d="m 8062.56,10578.2 c 0,0 -305,68.2 -463.23,62.9 -158.21,-5.3 56.84,-421.7 56.84,-421.7 l 258.4,-5.7 c 0,0 157.58,105 180.62,103.6 87.11,-5.2 19.17,245.4 19.17,245.4 l -51.8,15.5" /><path
         id="path96"
         style="fill:#ffc0bb;fill-opacity:1;fill-rule:nonzero;stroke:none"
         d="m 7755.77,10906.5 -90.74,-275.5 c 0,0 79.01,-163.3 320.97,-92.9 0,0 -27.6,57.1 9.42,174.6 37.84,120 -239.65,193.8 -239.65,193.8" /><path
         id="path98"
         style="fill:#ac6964;fill-opacity:1;fill-rule:nonzero;stroke:none"
         d="m 7976.19,10599.8 c -0.03,0 -0.05,0.1 -0.08,0.1 -0.03,20.3 2.3,45.6 9.32,76.2 v 0 c -7,-30.6 -9.28,-55.9 -9.24,-76.3 m -262.91,177.7 c -0.03,0.1 -0.06,0.2 -0.09,0.3 l 11.1,33.6 c 0.04,-0.1 0.07,-0.1 0.1,-0.2 l -11.11,-33.7" /><path
         id="path100"
         style="fill:#fda19a;fill-opacity:1;fill-rule:nonzero;stroke:none"
         d="m 7976.11,10599.9 c -155.07,19.8 -237.38,83.7 -262.83,177.6 l 11.11,33.7 c 61.74,-79.9 155.37,-132 261.04,-135.1 -7.02,-30.6 -9.35,-55.9 -9.32,-76.2" /><path
         id="path102"
         style="fill:#f99893;fill-opacity:1;fill-rule:nonzero;stroke:none"
         d="m 8309.35,11108.1 c -19.64,-44.7 -6.55,-93.7 29.23,-109.4 35.79,-15.7 80.72,7.8 100.35,52.6 19.64,44.7 6.55,93.7 -29.24,109.4 -35.78,15.7 -80.71,-7.8 -100.34,-52.6" /><path
         id="path104"
         style="fill:#ffc0bb;fill-opacity:1;fill-rule:nonzero;stroke:none"
         d="m 8289.33,10843.9 c 11.77,19.3 21.84,39.7 30.04,61.1 23.2,57.6 35.78,119.1 42.45,172.8 1.43,11.6 3.52,23 5.82,34.4 9.33,46 10.47,94.9 0.96,145.6 -30.6,163 -167.23,288.8 -332.21,305.4 -222.26,22.5 -411.05,-148.4 -416.84,-365.8 -23.29,13.8 -49.74,17.5 -73.39,7.7 -45.36,-18.8 -63.05,-80 -39.51,-136.7 23.54,-56.7 79.39,-87.4 124.75,-68.6 6.3,2.6 12.01,6.1 17.21,10.2 13.91,-185.4 161.65,-332.2 343.49,-334.1 88.92,-0.8 170.37,33.1 232.49,89.7 4.14,3.3 8.5,7.1 13.09,11.6 20.16,19.8 37.16,42.4 51.65,66.7" /><path
         id="path106"
         style="fill:#f99893;fill-opacity:1;fill-rule:nonzero;stroke:none"
         d="m 8203.01,11176.9 c -7.16,-20.5 -10.89,-41.9 -12.11,-63.7 -0.59,-11 -0.32,-22 1.17,-33.2 1.71,-11.2 4.31,-22.8 11.43,-34 l 3.14,-4 2.81,-3.5 c 1.17,-1.6 2.95,-3 3.74,-4.7 2.23,-3.2 3.6,-6.8 4.12,-10.4 1.52,-7.3 -1.91,-15.2 -7.22,-22.3 -11.47,-14.3 -31.57,-22.2 -52.55,-26.4 20.89,-4.1 45.7,-1.5 64.2,15.3 9.03,8.2 16.02,21.1 14.98,35.2 -0.25,3.5 -0.78,7 -2.04,10.2 -0.92,3.4 -2.6,6.3 -4.26,9.2 -1.56,3.1 -3.95,5.2 -5.95,7.9 -1.28,1.4 -1.48,1.9 -2.13,2.7 l -1.74,2.3 c -4.48,6.7 -7.23,16.2 -9.38,25.8 -2.35,9.6 -3.03,19.9 -4.32,30.2 -1.79,20.7 -2.6,41.8 -3.89,63.4" /><path
         id="path108"
         style="fill:#ffc0bb;fill-opacity:1;fill-rule:nonzero;stroke:none"
         d="m 8818.89,7036.7 -120.27,-344.7 -176.97,177 63.91,163.2 233.33,4.5" /><path
         id="path110"
         style="fill:#333333;fill-opacity:1;fill-rule:nonzero;stroke:none"
         d="m 8075.12,11133 c -0.18,-18.2 -15.1,-32.8 -33.32,-32.7 -18.21,0.2 -32.83,15.1 -32.65,33.4 0.19,18.2 15.1,32.8 33.32,32.6 18.21,-0.2 32.83,-15.1 32.65,-33.3" /><path
         id="path112"
         style="fill:#333333;fill-opacity:1;fill-rule:nonzero;stroke:none"
         d="m 8320.11,11127 c -0.18,-18.2 -15.1,-32.9 -33.31,-32.7 -18.22,0.2 -32.84,15.1 -32.65,33.3 0.18,18.3 15.1,32.9 33.31,32.7 18.22,-0.2 32.84,-15.1 32.65,-33.3" /><path
         id="path114"
         style="fill:#fda8a3;fill-opacity:1;fill-rule:nonzero;stroke:none"
         d="m 8154.41,10839.9 c -2.32,0 -4.7,0.1 -7.15,0.2 -74.98,4.6 -77.02,73.7 -77.02,73.7 0,0 12.96,4.7 31.51,4.7 15.96,0 36.06,-3.5 55.58,-16.3 0,0 20.91,13.1 45.58,13.1 11.78,0 24.41,-3 36.03,-11.8 0,0 -15.62,-63.6 -84.53,-63.6" /><path
         id="path116"
         style="fill:#f99893;fill-opacity:1;fill-rule:nonzero;stroke:none"
         d="m 8030.96,10938.2 c 8.49,-6.9 17.32,-13.2 26.62,-18.8 9.17,-5.7 18.68,-10.8 28.52,-15.1 19.63,-8.6 40.35,-14.7 61.53,-16.5 21.17,-1.9 42.55,0.8 62.99,7 20.37,6.6 39.62,16.7 57.78,28.9 -8.1,-7.4 -16.8,-14.1 -26.09,-20 -9.28,-6 -19.34,-10.7 -29.62,-14.9 -10.4,-3.9 -21.25,-6.7 -32.31,-8.3 -11.08,-1.4 -22.31,-1.7 -33.46,-0.9 -22.27,2.1 -43.96,8.7 -63.56,19 -19.57,10.3 -37.7,23.3 -52.4,39.6" /><path
         id="path118"
         style="fill:#333333;fill-opacity:1;fill-rule:nonzero;stroke:none"
         d="m 8087.39,11231.6 c -16.97,4.6 -32.91,7.9 -48.63,9.8 -15.68,1.8 -30.99,1.7 -45.82,-0.7 -14.74,-2.5 -29.52,-6.2 -43.61,-13.3 -7.51,-2.6 -13.98,-7.4 -21.56,-10.9 -7.27,-3.9 -13.98,-8.9 -22.15,-12.8 3.86,7.8 8.43,15.4 13.82,22.5 5.99,6.4 11.69,13.7 19.28,18.7 14.09,11.5 32.08,18.5 50.36,21.5 18.41,2.9 37.4,0.9 54.43,-5.2 16.93,-6.3 32.59,-15.9 43.88,-29.6" /><path
         id="path120"
         style="fill:#333333;fill-opacity:1;fill-rule:nonzero;stroke:none"
         d="m 8237.99,11231.6 c 12.88,12.2 29.59,19.9 47.16,24 17.64,4 36.73,3.7 54.65,-1.5 17.79,-5.1 34.79,-14.3 47.37,-27.5 6.93,-5.8 11.7,-13.7 16.86,-20.8 4.5,-7.7 -12.33,-0.4 -9.45,-8.6 -7.63,4.9 6.75,-4.8 0,0 -7.09,4.4 -12.93,9.9 -20.07,13.4 -13.12,8.7 -27.34,14.2 -41.66,18.5 -14.44,4.2 -29.61,6.2 -45.4,6.3 -15.83,0 -32.06,-1.4 -49.46,-3.8" /><path
         id="path122"
         style="fill:#3660ac;fill-opacity:1;fill-rule:nonzero;stroke:none"
         d="m 8248,9801.3 c 0,0 -67.17,-196.3 -79.38,-300.6 -30.32,-259.1 25.77,-481.4 79.38,-628.9 75.19,-206.8 -562.06,-91.9 -574.59,-85.6 -12.54,6.2 -538.92,209.9 -538.92,209.9 l -39.67,405.9 -60.59,399.3 28.2,235 1185.57,-235" /><path
         id="path124"
         style="fill:#ffc0bb;fill-opacity:1;fill-rule:nonzero;stroke:none"
         d="m 7238.5,10372.2 c 0,0 81.55,-7.1 72.69,-148.9 -8.87,-141.9 -75.08,-411.9 -75.08,-411.9 0,0 -643.2,-1236.1 -784.17,-1356.4 -7.63,-6.5 -17.29,-10.1 -27.33,-10.5 l -433.41,1.7 c 0,0 27.77,27.9 57.66,35.8 l 202,53.6 c 7.97,2.1 14.71,7.4 18.67,14.6 l 64.72,118.1 487.81,1301.2 c 49.76,115.9 168.15,182.1 249.49,278.6 59.45,70.4 124.28,131.1 166.95,124.1" /><path
         id="path126"
         style="fill:#3660ac;fill-opacity:1;fill-rule:nonzero;stroke:none"
         d="m 8114.36,10562.7 c -6.04,-123.3 -178.64,-328.7 -178.64,-328.7 -31.28,68.7 -332.6,402.9 -336.38,407.1 -124.1,-1.9 -387.49,-20.3 -548.45,-134.6 -216.19,-153.5 -345.65,-498.4 -345.65,-498.4 0,0 391.65,-197.4 488.78,-206.8 h 1087.23 c 0,0 166.06,12.6 325.85,94 0,0 -25.74,510.9 -492.74,667.4" /><path
         id="path128"
         style="fill:#daeef7;fill-opacity:1;fill-rule:nonzero;stroke:none"
         d="m 7368.12,10213.7 c -11.19,-33.5 -21.11,-67.4 -31.14,-101.3 -10.09,-33.8 -19.17,-68 -28.18,-102.1 -8.61,-34.3 -17.31,-68.5 -24.79,-103.1 -7.43,-34.6 -14.72,-69.3 -20.27,-104.4 l 8.28,8.4 c -10.68,-1.2 -23.81,-0.8 -35.91,0.2 -12.35,0.8 -24.72,2.6 -37.07,4.4 -24.62,4.4 -49.32,9.1 -73.59,15.9 l -18.26,4.8 -18.1,5.6 c -12.03,3.8 -24.17,7.2 -36.07,11.5 l -35.85,12.4 -35.42,13.7 c -23.71,8.9 -46.85,19.4 -70.33,29 l -69.34,31.6 -68.69,33.2 c -22.6,11.7 -45.26,23.3 -68.15,34.6 21.55,-13.6 43.31,-26.9 65.14,-40.1 22,-12.9 44.23,-25.5 66.58,-37.9 22.55,-12 45.33,-23.6 68.2,-35 l 34.81,-16.2 c 11.59,-5.4 23.18,-10.8 35.11,-15.5 47.03,-20.3 95.52,-37.5 145.17,-51.2 l 18.66,-5 18.88,-4.3 c 12.51,-3.1 25.36,-5 38.1,-7.3 12.87,-1.8 25.73,-3.5 38.82,-4.3 13.27,-0.9 25.73,-1.4 40.39,0.2 l 7.14,0.8 1.14,7.5 c 10.56,69.3 24.64,138.3 39.31,207.2 l 22.39,103.4 23.04,103.3" /><path
         id="path130"
         style="fill:#daeef7;fill-opacity:1;fill-rule:nonzero;stroke:none"
         d="m 8194.75,10293 c 15.32,-40.1 29.25,-80.4 41.69,-121 12.2,-40.6 23.01,-81.6 30.22,-123.1 4,-20.7 6.58,-41.5 8.35,-62.4 2.11,-20.9 2.33,-41.9 1.56,-62.8 -1.55,-41.9 -63.58,-238.8 -81.82,-277.8 25.75,34.6 93.28,233.2 97.84,276.5 5.24,43.5 1.65,87.4 -5.68,130.1 -4.06,21.4 -8.82,42.5 -14.73,63.3 -6.17,20.8 -12.72,41.3 -20.61,61.4 -15.5,40.2 -33.84,79.4 -56.82,115.8" /><path
         id="path132"
         style="fill:#224887;fill-opacity:1;fill-rule:nonzero;stroke:none"
         d="m 7116.82,9010.8 c -105.09,-138 -127.22,-324.5 -50.47,-480 53.3,-108.1 153.9,-208.8 339.41,-254.5 494.66,-121.8 1118.94,-134.2 1118.94,-134.2 l 11.55,-1195 260.38,-29.8 c 0,0 776.96,1610.4 -137.74,1927.5 l -836.94,48.7 -342.96,46.4 c 0,0 -343.18,108.1 -348.32,92 -1.08,-3.4 -6.27,-11.1 -13.85,-21.1" /><path
         id="path134"
         style="fill:#daeef7;fill-opacity:1;fill-rule:nonzero;stroke:none"
         d="m 8663.74,8110.3 c -13.28,2.4 -26.55,4.6 -39.64,7.7 -13.1,3 -26.04,6.6 -38.85,10.4 -6.42,2 -12.89,4.2 -19.21,6.5 6.64,1.4 13.09,3.3 19.49,5.6 12.65,4.5 24.47,10.9 35.57,18.2 10.72,7.9 20.89,16.5 29.75,26.2 8.93,9.7 16.57,20.4 23.32,31.6 l -13.18,-14.4 c -4.73,-4.4 -9.12,-9.1 -14.05,-13.2 -9.39,-8.7 -19.88,-16.1 -30.64,-22.7 -10.84,-6.6 -22.33,-11.9 -34.15,-16 -11.74,-4 -24.47,-6.9 -36.2,-7.3 l -21.52,-0.8 19.1,-8.9 c 12.97,-6 25.88,-10 39.13,-13.7 13.18,-3.7 26.61,-6.3 40.04,-8.6 13.45,-2.2 26.93,-4.1 40.49,-5.1 13.56,-0.9 27.12,-1.6 40.68,-1.6 -13.43,2 -26.84,3.7 -40.13,6.1" /><g
         transform="scale(1.22139)"
         id="g136"><path
           id="path138"
           style="fill:#f9fefe;fill-opacity:1;fill-rule:nonzero;stroke:none"
           d="m 16300,13106.4 h -1347.3 c -1.4,14.7 -2.2,29.5 -2.2,44.5 0,252.7 204.9,457.6 457.6,457.6 80.9,0 156.7,-21 222.6,-57.7 11.8,32.4 26,63.7 42.5,93.6 34,-6.3 66.6,-17 96.9,-34.5 63.7,-36.9 107.8,-99.2 153.9,-156.7 108.3,-135 235.5,-249.8 376,-346.8" /></g><g
         transform="scale(1.19151)"
         id="g140"><path
           id="path142"
           style="fill:#ffffff;fill-opacity:1;fill-rule:nonzero;stroke:none"
           d="m 14006.8,12528.9 c 133.8,0 242.2,-108.4 242.2,-242.2 0,-133.7 -108.4,-242.2 -242.2,-242.2 -133.8,0 -242.2,108.5 -242.2,242.2 0,133.8 108.4,242.2 242.2,242.2 m 2232.8,-855.4 c -3.6,279.9 -202.5,519 -477.1,573.3 l -495.6,98.1 c -78.3,15.5 -148.3,58.5 -197.6,121.3 l -191.8,244.3 c -52.5,66.9 -132.8,106 -217.9,106 H 13354 c -85.1,0 -165.4,-39.1 -218,-106 l -191.7,-244.3 c -49.2,-62.8 -119.4,-105.8 -197.7,-121.3 l -495.6,-98.1 c -274.5,-54.3 -473.5,-293.4 -477,-573.3 l -58,-4550.85 c -2.5,-191.19 81.1,-373.39 227.6,-496.09 285.7,-239.36 853.9,-572.56 1799.7,-567.86 v -282.41 c 0,-165.09 133.8,-298.87 298.9,-298.87 165.1,0 298.9,133.78 298.9,298.87 v 282.75 c 903.4,11.75 1450.4,334.2 1728.9,567.52 146.5,122.7 230,304.9 227.6,496.09 l -58,4550.85" /></g><g
         transform="scale(1.17106)"
         id="g144"><path
           id="path146"
           style="fill:#daeef7;fill-opacity:1;fill-rule:nonzero;stroke:none"
           d="m 12452.5,11414.8 c -113.8,-15.4 -199,-111 -200.5,-224.8 l -47.1,-3672.37 c -2.2,-169.34 72.4,-330.73 203.3,-439.52 263.1,-218.52 794.3,-525.42 1686.7,-501.77 104.3,2.73 208.6,2.73 312.9,0 892.4,-23.65 1423.6,283.25 1686.7,501.77 130.9,108.79 205.5,270.18 203.3,439.52 l -47.6,3704.47 c -1.4,114.7 -88.1,210.9 -203,225.1 -1475.3,182.5 -2800,75.5 -3594.7,-32.4" /></g><g
         transform="scale(1.15766)"
         id="g148"><path
           id="path150"
           style="fill:#e72c3b;fill-opacity:1;fill-rule:nonzero;stroke:none"
           d="m 16268.2,10114 -1848,-275.87 -1852,464.77 -1.3,1.8 -32.2,-2526.66 c -2,-157.04 66.6,-306.65 187,-407.55 241.9,-202.64 730.3,-487.19 1550.8,-465.24 95.9,2.58 191.8,2.58 287.7,0 820.5,-21.95 1308.9,262.6 1550.8,465.24 120.4,100.9 189,250.51 187,407.55 l -29.8,2335.96" /></g><g
         transform="scale(1.19599)"
         id="g152"><path
           id="path154"
           style="fill:#b20b1f;fill-opacity:1;fill-rule:nonzero;stroke:none"
           d="m 12165.3,9972.69 c 0,0 1527.5,-444.56 2432.8,65.51 905.6,510.1 1701.9,-212.82 657.9,-754.76 -1072,-556.53 -3090.7,689.25 -3090.7,689.25" /></g><g
         transform="scale(1.00111)"
         id="g156"><path
           id="path158"
           style="fill:#ffffff;fill-opacity:1;fill-rule:nonzero;stroke:none"
           d="m 16193.1,10827.9 h -1394.5 c -59.1,0 -106.9,47.8 -106.9,106.8 v 1394.6 c 0,59 47.8,106.9 106.9,106.9 h 1394.5 c 59.1,0 106.9,-47.9 106.9,-106.9 v -1394.6 c 0,-59 -47.8,-106.8 -106.9,-106.8" /></g><g
         transform="scale(1.14631)"
         id="g160"><path
           id="path162"
           style="fill:#edf7fb;fill-opacity:1;fill-rule:nonzero;stroke:none"
           d="m 16300,10524.3 c -101,80.8 -253,130.2 -434,130.2 -23.8,0 -48.2,-0.8 -73.1,-2.6 v 592.7 c 0,106.4 86.4,192.7 192.8,192.7 h 121.6 c 106.4,0 192.7,-86.3 192.7,-192.7 v -720.3" /></g><g
         transform="scale(1.14631)"
         id="g164"><path
           id="path166"
           style="fill:#f3969d;fill-opacity:1;fill-rule:nonzero;stroke:none"
           d="m 16107.3,7621 h -121.6 c -106.4,0 -192.8,86.28 -192.8,192.79 V 9630.3 c 42.7,16.17 84.1,34.61 124.3,55.48 174.3,90.46 299.4,185.78 382.8,279.86 V 7813.79 c 0,-106.51 -86.3,-192.79 -192.7,-192.79" /></g><g
         transform="scale(1.14631)"
         id="g168"><path
           id="path170"
           style="fill:#d9858f;fill-opacity:1;fill-rule:nonzero;stroke:none"
           d="m 15792.9,9630.3 v 1021.6 c 24.9,1.8 49.3,2.6 73.1,2.6 181,0 333,-49.4 434,-130.2 v -558.66 c -83.4,-94.08 -208.5,-189.4 -382.8,-279.86 -40.2,-20.87 -81.6,-39.31 -124.3,-55.48" /></g><path
         id="path172"
         style="fill:#b6d5e0;fill-opacity:1;fill-rule:nonzero;stroke:none"
         d="m 14886.7,12074.4 h 1238.8 v 74.262 h -1238.8 z" /><path
         id="path174"
         style="fill:#b6d5e0;fill-opacity:1;fill-rule:nonzero;stroke:none"
         d="m 14886.7,11811.1 h 1238.8 v 74.258 h -1238.8 z" /><path
         id="path176"
         style="fill:#b6d5e0;fill-opacity:1;fill-rule:nonzero;stroke:none"
         d="m 14886.7,11547.8 h 1238.8 v 74.269 h -1238.8 z" /><path
         id="path178"
         style="fill:#b6d5e0;fill-opacity:1;fill-rule:nonzero;stroke:none"
         d="m 14886.7,11284.5 h 1238.8 v 74.25 h -1238.8 z" /><path
         id="path180"
         style="fill:#ffc0bb;fill-opacity:1;fill-rule:nonzero;stroke:none"
         d="m 10980.9,8607.3 c -30.8,1.9 -53.7,29.7 -53.4,60.7 2.7,244.4 8.1,1605.5 -199.9,1569.2 -228.5,-39.9 -188.6,-1889.4 -177.7,-2092.5 10.9,-203.1 36.3,-1189.5 87,-1414.4 50.8,-224.8 162.6,-4990.1 105.2,-6099.898 h 2143.3 c 0,0 -565.7,5171.498 -449.7,5555.898 116.1,384.4 203.1,652.8 478.7,1044.5 275.6,391.7 239.4,1051.7 326.4,1240.3 87,188.5 290.1,453.3 116,533.1 -174,79.8 -496.8,-428 -627.3,-913.9 0,0 -83.5,-134.2 -145.1,32.6 -61.7,166.8 -170.5,2012.8 -177.7,2150.6 -7.3,137.8 -72.5,253.8 -170.5,242.9 -97.9,-10.8 -141.4,-351.7 -152.3,-910.2 -10.9,-558.5 18.9,-1011.8 -101.2,-990.1 -120,21.8 -65.6,1762.5 -159.9,2056.3 -94.3,293.7 -279.2,90.7 -275.6,-264.7 3.6,-355.4 58,-1740.8 -54.4,-1726.3 -112.4,14.5 -58,1925.7 -253.9,1907.6 -202.3,-18.8 -203.1,-315.5 -203.1,-823.3 0,-463.2 105.7,-1168.1 -54.9,-1158.4" /><path
         id="path182"
         style="fill:#f99893;fill-opacity:1;fill-rule:nonzero;stroke:none"
         d="m 10763.9,8307.9 c 0,0 903,282.8 1583,38 0,0 -821.5,65.3 -1583,-38" /><path
         id="path184"
         style="fill:#f99893;fill-opacity:1;fill-rule:nonzero;stroke:none"
         d="m 10792.9,7800.1 c 0,0 783.3,-681.7 939.2,-1019 0,0 420.7,768.8 761.6,1044.4 0,0 -518.6,-224.8 -750.7,-645.5 0,0 -438.8,464.2 -950.1,620.1" /><path
         id="path186"
         style="fill:#f99893;fill-opacity:1;fill-rule:nonzero;stroke:none"
         d="m 10792.9,6679.5 c 0,0 65.2,-427.9 703.5,-366.2 0,0 -519.1,89.7 -703.5,366.2" /><path
         id="path188"
         style="fill:#daeef7;fill-opacity:1;fill-rule:nonzero;stroke:none"
         d="m 12192.2,4996.8 h -1097.8 c -78.4,0 -142,-63.6 -142,-142 V 3757 c 0,-78.4 63.6,-142 142,-142 h 406.9 v -477.8 c 0,-78.4 63.6,-142 142,-142 78.4,0 142,63.6 142,142 V 3615 h 406.9 c 78.4,0 142,63.6 142,142 v 1097.8 c 0,78.4 -63.6,142 -142,142" /><path
         id="path190"
         style="fill:#eaf5f9;fill-opacity:1;fill-rule:nonzero;stroke:none"
         d="m 12009.3,3862.9 h -732 c -42.6,0 -77.1,34.4 -77.1,77 v 732 c 0,42.6 34.5,77.1 77.1,77.1 h 732 c 42.6,0 77,-34.5 77,-77.1 v -732 c 0,-42.6 -34.4,-77 -77,-77" /><path
         id="path192"
         style="fill:#fcffff;fill-opacity:1;fill-rule:nonzero;stroke:none"
         d="m 13408.9,2726.1 v 2794.1 h 754.2 V 3206.3 c -26.6,-8.6 -53,-17.7 -79,-27.4 v 143.2 c 13.8,45.8 -16.9,75.8 -69.7,75.8 -31.5,0 -71,-10.8 -113.4,-35.3 -56,-32.4 -126.1,-42.7 -192.6,-42.7 -14.3,0 -28.4,0.5 -42.2,1.3 v 1590.1 h 307.9 c 59.9,0 108.5,48.5 108.5,108.4 v 104.2 h -593.1 v -104.2 c 0,-42 23.9,-78.5 58.9,-96.5 V 3336.8 c -37,7.4 -60.5,14.4 -60.5,14.4 v 0 -543.3 c -27.4,-26.4 -53.8,-53.7 -79,-81.8" /><path
         id="path194"
         style="fill:#f1f9f9;fill-opacity:1;fill-rule:nonzero;stroke:none"
         d="m 14163.1,893.902 h -79 V 3178.9 c 26,9.7 52.4,18.8 79,27.4 V 893.902 m -675.2,0 h -79 V 2726.1 c 25.2,28.1 51.6,55.4 79,81.8 V 893.902" /><path
         id="path196"
         style="fill:#feb546;fill-opacity:1;fill-rule:nonzero;stroke:none"
         d="m 14235,5121.5 h -898 c -39.9,0 -72.2,32.3 -72.2,72.2 V 5717 c 0,39.9 32.3,72.2 72.2,72.2 h 898 c 39.9,0 72.2,-32.3 72.2,-72.2 v -523.3 c 0,-39.9 -32.3,-72.2 -72.2,-72.2" /><path
         id="path198"
         style="fill:#f4a640;fill-opacity:1;fill-rule:nonzero;stroke:none"
         d="m 13489.5,5123.9 h -119.8 v 665.3 h 119.8 v -665.3" /><path
         id="path200"
         style="fill:#f4a640;fill-opacity:1;fill-rule:nonzero;stroke:none"
         d="m 13727.1,5123.9 h -119.8 v 665.3 h 119.8 v -665.3" /><path
         id="path202"
         style="fill:#f4a640;fill-opacity:1;fill-rule:nonzero;stroke:none"
         d="m 13964.7,5123.9 h -119.8 v 665.3 h 119.8 v -665.3" /><path
         id="path204"
         style="fill:#f4a640;fill-opacity:1;fill-rule:nonzero;stroke:none"
         d="m 14202.4,5123.9 h -119.8 v 665.3 h 119.8 v -665.3" /><path
         id="path206"
         style="fill:#f4a640;fill-opacity:1;fill-rule:nonzero;stroke:none"
         d="m 13974.1,4911.3 h -376.2 c -59.9,0 -108.4,48.5 -108.4,108.4 v 104.2 h 593.1 v -104.2 c 0,-59.9 -48.6,-108.4 -108.5,-108.4" /><path
         id="path208"
         style="fill:#e72c3b;fill-opacity:1;fill-rule:nonzero;stroke:none"
         d="m 14084.1,893.902 h -596.2 V 3351.2 l 253.9,-93.7 342.3,93.7 V 893.902" /><path
         id="path210"
         style="fill:#b20b1f;fill-opacity:1;fill-rule:nonzero;stroke:none"
         d="m 13487.9,3351.2 c 0,0 259.4,-77.5 413.1,11.4 153.7,88.9 268.1,-3.2 111.7,-131.5 -161,-132.1 -524.8,120.1 -524.8,120.1" /><path
         id="path212"
         style="fill:#fdffff;fill-opacity:1;fill-rule:nonzero;stroke:none"
         d="m 13666.2,3321.2 c -45,2.7 -86.3,9.3 -117.8,15.6 v 1586.4 c 14.8,-7.6 31.7,-11.9 49.5,-11.9 h 68.3 V 3321.2" /><path
         id="path214"
         style="fill:#f6b866;fill-opacity:1;fill-rule:nonzero;stroke:none"
         d="m 13666.2,4911.3 h -68.3 c -17.8,0 -34.7,4.3 -49.5,11.9 v 58 c 0,20.1 16.2,36.4 36.3,36.4 h 45.2 c 20,0 36.3,-16.3 36.3,-36.4 v -69.9" /><path
         id="path216"
         style="fill:#ec5662;fill-opacity:1;fill-rule:nonzero;stroke:none"
         d="m 13629.9,956.402 h -45.2 c -20.1,0 -36.3,16.2 -36.3,36.297 V 3313.2 c 31.2,-18.3 72.2,-40.8 117.8,-61.3 V 992.699 c 0,-20.097 -16.3,-36.297 -36.3,-36.297" /><path
         id="path218"
         style="fill:#c13c4c;fill-opacity:1;fill-rule:nonzero;stroke:none"
         d="m 13666.2,3251.9 c -45.6,20.5 -86.6,43 -117.8,61.3 v 23.6 c 31.5,-6.3 72.8,-12.9 117.8,-15.6 v -69.3" /><path
         id="path220"
         style="fill:#fcffff;fill-opacity:1;fill-rule:nonzero;stroke:none"
         d="m 15466.4,3105.7 c -25.4,16.6 -51.7,32.2 -79,46.9 v 169.5 c 13.9,45.8 -16.9,75.8 -69.6,75.8 -31.6,0 -71,-10.8 -113.5,-35.3 -56,-32.4 -126.1,-42.7 -192.5,-42.7 -14.3,0 -28.5,0.5 -42.3,1.3 v 1590.1 h 308 c 59.8,0 108.4,48.5 108.4,108.4 v 104.2 h -593.1 v -104.2 c 0,-42 23.9,-78.5 58.9,-96.5 V 3336.8 c -37,7.4 -60.4,14.4 -60.4,14.4 v 0 -56.7 c -19.2,0.5 -38.3,0.8 -57.3,0.8 -7.3,0 -14.5,0 -21.8,-0.1 v 2225 h 754.2 V 3105.7" /><path
         id="path222"
         style="fill:#f1f9f9;fill-opacity:1;fill-rule:nonzero;stroke:none"
         d="m 15466.4,893.902 h -79 V 3152.6 c 27.3,-14.7 53.6,-30.3 79,-46.9 V 893.902 m -675.1,0 h -79.1 V 3295.2 c 7.3,0.1 14.5,0.1 21.8,0.1 19,0 38.1,-0.3 57.3,-0.8 V 893.902" /><path
         id="path224"
         style="fill:#feb546;fill-opacity:1;fill-rule:nonzero;stroke:none"
         d="m 15538.3,5121.5 h -897.9 c -39.9,0 -72.3,32.3 -72.3,72.2 V 5717 c 0,39.9 32.4,72.2 72.3,72.2 h 897.9 c 39.9,0 72.3,-32.3 72.3,-72.2 v -523.3 c 0,-39.9 -32.4,-72.2 -72.3,-72.2" /><path
         id="path226"
         style="fill:#f4a640;fill-opacity:1;fill-rule:nonzero;stroke:none"
         d="M 14792.8,5123.9 H 14673 v 665.3 h 119.8 v -665.3" /><path
         id="path228"
         style="fill:#f4a640;fill-opacity:1;fill-rule:nonzero;stroke:none"
         d="m 15030.4,5123.9 h -119.8 v 665.3 h 119.8 v -665.3" /><path
         id="path230"
         style="fill:#f4a640;fill-opacity:1;fill-rule:nonzero;stroke:none"
         d="m 15268.1,5123.9 h -119.8 v 665.3 h 119.8 v -665.3" /><path
         id="path232"
         style="fill:#f4a640;fill-opacity:1;fill-rule:nonzero;stroke:none"
         d="m 15505.7,5123.9 h -119.8 v 665.3 h 119.8 v -665.3" /><path
         id="path234"
         style="fill:#f4a640;fill-opacity:1;fill-rule:nonzero;stroke:none"
         d="m 15277.5,4911.3 h -376.3 c -59.9,0 -108.4,48.5 -108.4,108.4 v 104.2 h 593.1 v -104.2 c 0,-59.9 -48.6,-108.4 -108.4,-108.4" /><path
         id="path236"
         style="fill:#e72c3b;fill-opacity:1;fill-rule:nonzero;stroke:none"
         d="m 15387.4,893.902 h -596.1 V 3351.2 l 253.8,-93.7 342.3,93.7 V 893.902" /><path
         id="path238"
         style="fill:#b20b1f;fill-opacity:1;fill-rule:nonzero;stroke:none"
         d="m 14791.3,3351.2 c 0,0 259.3,-77.5 413,11.4 153.7,88.9 268.1,-3.2 111.7,-131.5 -161,-132.1 -524.7,120.1 -524.7,120.1" /><path
         id="path240"
         style="fill:#ec5662;fill-opacity:1;fill-rule:nonzero;stroke:none"
         d="m 14933.2,956.402 h -45.2 c -20,0 -36.3,16.2 -36.3,36.297 V 3313.2 c 31.2,-18.3 72.2,-40.8 117.8,-61.3 V 992.699 c 0,-20.097 -16.2,-36.297 -36.3,-36.297" /><path
         id="path242"
         style="fill:#fdffff;fill-opacity:1;fill-rule:nonzero;stroke:none"
         d="m 14969.5,3321.2 c -45,2.7 -86.3,9.3 -117.8,15.6 v 1586.4 c 14.8,-7.6 31.7,-11.9 49.5,-11.9 h 68.3 V 3321.2" /><path
         id="path244"
         style="fill:#f6b866;fill-opacity:1;fill-rule:nonzero;stroke:none"
         d="m 14969.5,4911.3 h -68.3 c -17.8,0 -34.7,4.3 -49.5,11.9 v 58 c 0,20.1 16.3,36.4 36.3,36.4 h 45.2 c 20.1,0 36.3,-16.3 36.3,-36.4 v -69.9" /><path
         id="path246"
         style="fill:#c13c4c;fill-opacity:1;fill-rule:nonzero;stroke:none"
         d="m 14969.5,3251.9 c -45.6,20.5 -86.6,43 -117.8,61.3 v 23.6 c 31.5,-6.3 72.8,-12.9 117.8,-15.6 v -69.3" /><g
         transform="scale(1.02882)"
         id="g248"><path
           id="path250"
           style="fill:#fcffff;fill-opacity:1;fill-rule:nonzero;stroke:none"
           d="m 16223.1,1710.11 v 1518.92 c 13.5,44.52 -16.4,73.68 -67.6,73.68 -30.8,0 -69,-10.5 -110.4,-34.31 -54.4,-31.5 -122.5,-41.5 -187.1,-41.5 -13.9,0 -27.7,0.48 -41.1,1.26 v 1545.55 h 299.4 c 58.2,0 105.4,47.14 105.4,105.36 v 101.29 h -576.5 v -101.29 c 0,-40.82 23.2,-76.3 57.2,-93.79 V 3243.32 c -35.9,7.2 -58.7,14 -58.7,14 v 0 -1270.78 c -18.9,88.94 -43.8,184.29 -76.8,281.01 v 3098 H 16300 V 1730.23 c -25.6,-6.12 -51.1,-12.83 -76.9,-20.12" /></g><g
         transform="scale(1.02882)"
         id="g252"><path
           id="path254"
           style="fill:#f1f9f9;fill-opacity:1;fill-rule:nonzero;stroke:none"
           d="m 15566.9,1130.32 v 1137.23 c 33,-96.72 57.9,-192.07 76.8,-281.01 v -794.79 c -26.3,-18.47 -52,-38.88 -76.8,-61.43 m 733.1,218.7 c -25,1.55 -50.6,2.62 -76.9,2.92 v 358.17 c 25.8,7.29 51.3,14 76.9,20.12 v -381.21" /></g><g
         transform="scale(1.02882)"
         id="g256"><path
           id="path258"
           style="fill:#f5fcfc;fill-opacity:1;fill-rule:nonzero;stroke:none"
           d="m 16300,868.86 h -76.9 v 483.08 c 26.3,-0.3 51.9,-1.37 76.9,-2.92 V 868.86 m -656.3,0 h -76.8 v 261.46 c 24.8,22.55 50.5,42.96 76.8,61.43 V 868.86" /></g><g
         transform="scale(1.03766)"
         id="g260"><path
           id="path262"
           style="fill:#feb546;fill-opacity:1;fill-rule:nonzero;stroke:none"
           d="M 16230.3,4935.61 H 15365 c -38.4,0 -69.7,31.13 -69.7,69.58 v 504.31 c 0,38.45 31.3,69.58 69.7,69.58 h 865.3 c 38.5,0 69.7,-31.13 69.7,-69.58 v -504.31 c 0,-38.45 -31.2,-69.58 -69.7,-69.58" /></g><path
         id="path264"
         style="fill:#f4a640;fill-opacity:1;fill-rule:nonzero;stroke:none"
         d="m 16096.1,5123.9 h -119.8 v 665.3 h 119.8 v -665.3" /><g
         transform="scale(1.00207)"
         id="g266"><path
           id="path268"
           style="fill:#f4a640;fill-opacity:1;fill-rule:nonzero;stroke:none"
           d="m 16300,5113.3 h -119.6 v 663.92 H 16300 V 5113.3" /></g><g
         transform="scale(1.01665)"
         id="g270"><path
           id="path272"
           style="fill:#f4a640;fill-opacity:1;fill-rule:nonzero;stroke:none"
           d="m 16300,5039.98 h -117.8 v 654.41 h 117.8 v -654.41" /></g><g
         transform="scale(1.03123)"
         id="g274"><path
           id="path276"
           style="fill:#f4a640;fill-opacity:1;fill-rule:nonzero;stroke:none"
           d="m 16300,4968.74 h -116.2 v 645.15 h 116.2 v -645.15" /></g><g
         transform="scale(1.02388)"
         id="g278"><path
           id="path280"
           style="fill:#f4a640;fill-opacity:1;fill-rule:nonzero;stroke:none"
           d="m 16194.1,4796.77 h -367.5 c -58.5,0 -105.9,47.36 -105.9,105.87 v 101.77 h 579.3 v -101.77 c 0,-58.51 -47.4,-105.87 -105.9,-105.87" /></g><g
         transform="scale(1.02397)"
         id="g282"><path
           id="path284"
           style="fill:#e72c3b;fill-opacity:1;fill-rule:nonzero;stroke:none"
           d="m 16300,872.978 h -582.1 V 3272.75 l 247.8,-91.5 334.3,91.5 V 872.978" /></g><g
         transform="scale(1.02918)"
         id="g286"><path
           id="path288"
           style="fill:#b20b1f;fill-opacity:1;fill-rule:nonzero;stroke:none"
           d="m 15638.2,3256.17 c 0,0 252,-75.3 401.3,11.08 149.4,86.38 260.5,-3.11 108.5,-127.77 -156.4,-128.36 -509.8,116.69 -509.8,116.69" /></g><path
         id="path290"
         style="fill:#fdffff;fill-opacity:1;fill-rule:nonzero;stroke:none"
         d="m 16272.8,3321.2 c -45,2.7 -86.3,9.3 -117.8,15.6 v 1586.4 c 14.9,-7.6 31.7,-11.9 49.5,-11.9 h 68.3 V 3321.2" /><path
         id="path292"
         style="fill:#f6b866;fill-opacity:1;fill-rule:nonzero;stroke:none"
         d="m 16272.8,4911.3 h -68.3 c -17.8,0 -34.6,4.3 -49.5,11.9 v 58 c 0,20.1 16.3,36.4 36.4,36.4 h 45.1 c 20.1,0 36.3,-16.3 36.3,-36.4 v -69.9" /><path
         id="path294"
         style="fill:#ec5662;fill-opacity:1;fill-rule:nonzero;stroke:none"
         d="m 16236.5,956.402 h -45.1 c -20.1,0 -36.4,16.2 -36.4,36.297 V 3313.2 c 31.2,-18.4 72.3,-40.8 117.8,-61.3 V 992.699 c 0,-20.097 -16.2,-36.297 -36.3,-36.297" /><path
         id="path296"
         style="fill:#c13c4c;fill-opacity:1;fill-rule:nonzero;stroke:none"
         d="m 16272.8,3251.9 c -45.5,20.5 -86.6,42.9 -117.8,61.3 v 23.6 c 31.5,-6.3 72.8,-12.9 117.8,-15.6 v -69.3" /><g
         transform="scale(1.10057)"
         id="g298"><path
           id="path300"
           style="fill:#18196b;fill-opacity:1;fill-rule:nonzero;stroke:none"
           d="M 15638.7,869.006 H 11782.3 V 3588.41 h 3856.4 z M 16192,3588.41 c 59.7,0 108,48.34 108,108.04 v 274.95 c 0,59.69 -48.3,108.03 -108,108.03 h -4963.1 c -59.6,0 -108,-48.34 -108,-108.03 v -274.95 c 0,-59.7 48.4,-108.04 108,-108.04 h 363.5 V 869.006 h -391.8 c -44,0 -79.7,-35.71 -79.7,-79.689 V 647.484 c 0,-44.068 35.7,-79.685 79.7,-79.685 h 5019.8 c 44,0 79.6,35.617 79.6,79.685 v 141.833 c 0,43.979 -35.6,79.689 -79.6,79.689 h -391.8 V 3588.41 h 363.4" /></g><g
         transform="scale(1.13431)"
         id="g302"><path
           id="path304"
           style="fill:#ffffff;fill-opacity:1;fill-rule:nonzero;stroke:none"
           d="m 16269.9,3139.98 c -41.9,470.95 -296.3,883.36 -520.9,1247.55 -109.8,178.17 -223.4,362.42 -344.6,538.92 -34,49.54 -69.3,99.7 -103.4,148.19 -203.1,288.55 -413.3,586.88 -460.4,921.97 l -213.7,-30.15 c 54.4,-386.58 279.7,-706.6 497.7,-1016.12 33.7,-47.96 68.6,-97.51 101.9,-146 118.1,-172.17 230.3,-354.13 339.1,-530.45 211.9,-343.56 451.9,-732.79 489.4,-1153.04 25,-280.97 -49.2,-548.71 -203.6,-734.46 -200.1,-240.59 -546.9,-374.59 -1060.3,-409.76 -155.8,-10.67 -321.7,-15.34 -479,22.04 -83.5,19.83 -164.7,51.39 -250.7,84.9 -30.9,11.98 -62.7,24.41 -94.7,36.23 -375.3,138.59 -719.8,173.58 -1023.8,104.2 -282,-64.44 -525.7,-216.87 -761.4,-364.18 -61.4,-38.44 -125,-78.2 -187.5,-115.23 -358.8,-212.38 -652.7,-285.46 -898.6,-223.31 -225.8,57.04 -432.3,238.56 -566.6,498.01 -120.4,232.57 -109.3,422.29 -152.2,690.73 -20.5,-41.16 -62.8,-69.47 -111.9,-69.47 -29.9,0 -57.2,10.5 -78.8,27.95 9.7,-159.39 43.3,-539.8 151.2,-748.47 162.7,-314.2 419.8,-535.84 705.4,-607.95 73.9,-18.69 150.1,-28.04 229.4,-28.04 246.9,0 521.4,90.98 832.1,274.89 64.7,38.35 129.5,78.81 192,117.86 230.6,144.24 448.4,280.53 694.9,336.77 262.6,59.95 565.8,27.6 901,-96.27 30.2,-11.1 61.2,-23.18 91.3,-34.91 88.9,-34.56 181,-70.44 279,-93.71 185.7,-44.17 379.1,-38.61 543.6,-27.33 575.5,39.32 971.8,198.71 1211.6,487.08 190.6,229.3 282.6,554.26 252.5,891.56" /></g><g
         transform="scale(1.1301)"
         id="g306"><path
           id="path308"
           style="fill:#e72c3b;fill-opacity:1;fill-rule:nonzero;stroke:none"
           d="m 16271.2,3146.45 c -40.9,458.64 -292.2,866.21 -514.3,1226.18 -109.9,178.22 -223.5,362.45 -344.3,538.45 -33.8,49.46 -69.2,99.64 -103.3,148.13 -208,295.37 -423.2,600.92 -472.4,951.42 l -96.6,-13.63 c 52.7,-373.77 274.6,-689.05 489.3,-993.9 33.9,-48.31 69.2,-98.22 102.7,-147.15 119.5,-174.06 232.5,-357.31 342,-534.91 216.1,-350.41 460.9,-747.55 499.8,-1183.26 26.5,-297.59 -52.8,-582.16 -217.9,-780.55 -211.7,-254.67 -573.5,-396.25 -1106,-432.62 -161.1,-11.06 -333,-15.84 -498.6,23.54 -87.8,20.88 -175,54.77 -259.5,87.6 -30.7,12.04 -62.4,24.34 -94.1,36.02 -365.6,135.03 -700,169.45 -993.6,102.38 -273.3,-62.39 -513.5,-212.64 -745.9,-357.94 -62,-38.75 -126.1,-78.84 -189.5,-116.36 -374.4,-221.57 -684.1,-297.05 -946.9,-230.68 -243.1,61.49 -464.4,254.75 -607,530.21 -120.3,232.46 -104.1,414.57 -141.4,672.87 -20.2,-13.81 -44.5,-21.86 -70.8,-21.86 -8.5,0 -16.8,0.88 -24.9,2.48 38.5,-265.02 24.5,-454.65 150.6,-698.26 155.3,-300.33 399.5,-511.64 669.6,-579.95 69.2,-17.43 141,-26.19 215.6,-26.19 237,0 502.5,88.49 804.9,267.5 64.4,38.13 129,78.57 191.5,117.6 225.4,141.05 458.6,286.87 715.8,345.54 275,62.83 590.7,29.56 938.3,-98.75 30.8,-11.41 62.2,-23.63 92.5,-35.4 87.5,-34.06 177.9,-69.28 272.3,-91.67 178.2,-42.3 359,-37.52 527.7,-25.93 560.5,38.32 944.7,191.22 1174.4,467.57 181.3,218.04 268.8,528.45 240,851.52" /></g><g
         transform="scale(1.22434)"
         id="g310"><path
           id="path312"
           style="fill:#ffc0bb;fill-opacity:1;fill-rule:nonzero;stroke:none"
           d="m 16052.2,850.83 -4.5,-130.278 204.2,9.964 48.1,159.27 -247.8,-38.956" /></g><g
         transform="scale(1.32545)"
         id="g314"><path
           id="path316"
           style="fill:#ffc0bb;fill-opacity:1;fill-rule:nonzero;stroke:none"
           d="m 16015.5,967.67 136.8,-204.686 147.7,117.696 -49.9,145.38 -234.6,-58.39" /></g><g
         transform="scale(1.33706)"
         id="g318"><path
           id="path320"
           style="fill:#ffffff;fill-opacity:1;fill-rule:nonzero;stroke:none"
           d="m 15940.8,472.906 346.1,250.848 c 10.7,7.704 13.1,22.662 5.4,33.358 -7.8,10.696 -22.7,13.089 -33.4,5.385 l -346.2,-250.773 c -10.7,-7.78 -13.1,-22.738 -5.4,-33.434 7.8,-10.696 22.8,-13.089 33.5,-5.384" /></g><g
         transform="scale(1.33531)"
         id="g322"><path
           id="path324"
           style="fill:#333333;fill-opacity:1;fill-rule:nonzero;stroke:none"
           d="m 16196.5,882.569 91,-98.629 c 11.2,-12.131 12.5,-29.657 2.7,-36.695 l -339.6,-246.084 c -8.9,-6.369 -21.5,-7.191 -33.7,-0.153 -12.5,7.115 -25,22.467 -25.3,54.971 -0.8,64.328 89.7,146.107 113.1,217.702 0.5,1.498 1.4,2.697 2.6,3.595 l 156.3,113.232 c 8.9,6.439 22.8,3.069 32.9,-7.939" /></g><g
         transform="scale(1.31697)"
         id="g326"><path
           id="path328"
           style="fill:#ffffff;fill-opacity:1;fill-rule:nonzero;stroke:none"
           d="m 16298.6,740.867 v 0 c 1.4,3.343 -0.7,8.201 -4.4,10.328 -17.7,10.1 -65.2,31.283 -102.8,-7.365 -2.2,-2.278 -1.5,-6.76 1.4,-9.871 l 0.1,-0.077 c 2.8,-3.037 6.6,-3.568 8.7,-1.442 33.8,34.549 75.1,15.415 89.6,6.757 3.1,-1.821 6.3,-1.139 7.4,1.67" /></g><g
         transform="scale(1.31491)"
         id="g330"><path
           id="path332"
           style="fill:#ffffff;fill-opacity:1;fill-rule:nonzero;stroke:none"
           d="m 16298.6,701.95 v 0 c 1.4,3.348 -0.7,8.214 -4.5,10.344 -17.7,10.116 -65.3,31.333 -102.9,-7.379 -2.2,-2.204 -1.5,-6.767 1.4,-9.884 l 0.1,-0.077 c 2.8,-2.965 6.6,-3.574 8.7,-1.369 33.9,34.529 75.2,15.361 89.8,6.77 3.1,-1.827 6.2,-1.144 7.4,1.595" /></g><g
         transform="scale(1.31299)"
         id="g334"><path
           id="path336"
           style="fill:#ffffff;fill-opacity:1;fill-rule:nonzero;stroke:none"
           d="m 16298.6,665.657 v 0 c 1.4,3.353 -0.7,8.227 -4.5,10.36 -17.6,10.13 -65.4,31.378 -103.1,-7.387 -2.1,-2.285 -1.4,-6.781 1.5,-9.902 v -0.077 c 2.9,-3.046 6.7,-3.579 8.8,-1.446 33.9,34.654 75.2,15.459 89.9,6.777 3.1,-1.829 6.3,-1.142 7.4,1.675" /></g><g
         transform="scale(1.03748)"
         id="g338"><path
           id="path340"
           style="fill:#e72c3b;fill-opacity:1;fill-rule:nonzero;stroke:none"
           d="m 16161.4,6547.22 c 0,0 -57.7,715.97 40.4,1526.97 98.2,810.91 -229,-66.41 -229,-66.41 0,0 -7.1,-1139.01 83.4,-1475.41 90.5,-336.29 105.2,14.85 105.2,14.85" /></g><g
         transform="scale(1.28863)"
         id="g342"><path
           id="path344"
           style="fill:#333333;fill-opacity:1;fill-rule:nonzero;stroke:none"
           d="m 16150,5659.21 c 7.2,-4.04 14.2,-8.62 20.2,-14.44 19.9,-19.71 25.8,-50.91 47.2,-68.91 10.7,-8.92 24.2,-13.73 36.7,-19.94 17.1,-8.46 33.4,-20.95 40.1,-38.8 3.8,-10.09 4.2,-21.11 4.5,-31.82 0.7,-19.55 1.3,-39.42 -4.5,-58.05 -3.4,-10.78 -8.9,-20.95 -11.6,-31.97 -5.4,-21.73 0.4,-44.93 -2.9,-67.12 -2.6,-16.77 -10.3,-32.21 -17.8,-47.42 -4,-7.91 -7.9,-15.98 -14,-22.43 -15.6,-16.53 -41,-19.01 -63.6,-16.83 -22.6,2.17 -45.5,7.91 -67.7,3.57 -18.8,-3.57 -35.3,-13.9 -52.7,-21.5 -26.7,-11.64 -56.2,-17.07 -85.3,-15.68 -8.1,0.39 -16.6,1.4 -23.6,5.44 -7.4,4.18 -12.7,11.17 -17.7,18 -27.8,37.56 -55.8,75.58 -74.8,118.27 -19,42.68 -28.6,91.18 -17.6,136.58 8.1,33.98 27.2,64.64 50.4,90.79 23.2,26.15 50.4,48.35 77.5,70.38 46.9,38.11 124.4,41.13 177.2,11.88" /></g><g
         transform="scale(1.21997)"
         id="g346"><path
           id="path348"
           style="fill:#ffc0bb;fill-opacity:1;fill-rule:nonzero;stroke:none"
           d="m 16245.7,4240.27 54.3,233.61 -221.8,166.81 c 0,0 -38.5,-278.53 -57.7,-390.42 l -448.1,-7.79 -86,-16.31 c 0,0 597.5,-250.17 635.6,-173.45 10.7,21.65 42.8,52.96 73.4,89.6 15.8,-3.94 26,-6.4 26,-6.4 l 14.4,62.22 c 8.1,13.69 14.8,27.79 19.2,42.13 h -9.3" /></g><g
         transform="scale(1.22942)"
         id="g350"><path
           id="path352"
           style="fill:#1b4b79;fill-opacity:1;fill-rule:nonzero;stroke:none"
           d="m 16300,5270.93 c 0,0 -284.2,-112.17 -394.2,-700.09 0,0 71,-96.3 229.8,-106.96 158.7,-10.65 110.4,377.58 110.4,377.58 l 54,429.47" /></g><g
         transform="scale(1.2547)"
         id="g354"><path
           id="path356"
           style="fill:#ffc0bb;fill-opacity:1;fill-rule:nonzero;stroke:none"
           d="m 16300,5353.87 -10.6,-166.97 -227.5,-47.26 h -40.2 l 8.4,199.97 241.3,85.28 28.6,-71.02" /></g><g
         transform="scale(1.25645)"
         id="g358"><path
           id="path360"
           style="fill:#ffc0bb;fill-opacity:1;fill-rule:nonzero;stroke:none"
           d="m 15920.8,5079.46 c -10.2,-111.99 36.1,-132.84 36.1,-132.84 l 343.1,254.61 c -213,-20.86 -350.7,-43.7 -350.7,-43.7 0,0 -17.6,-81.1 -28.5,-78.07" /></g><g
         transform="scale(1.27651)"
         id="g362"><path
           id="path364"
           style="fill:#333333;fill-opacity:1;fill-rule:nonzero;stroke:none"
           d="m 16231.1,5619.23 c 0,0 68.9,282.88 -95.4,388.87 -164.2,106 -338.3,94.17 -456.8,30.71 -118.7,-63.53 -189.6,-284.84 -136.4,-411.35 l 393.5,120.79 295.1,-129.02" /></g><g
         transform="scale(1.16264)"
         id="g366"><path
           id="path368"
           style="fill:#ffc0bb;fill-opacity:1;fill-rule:nonzero;stroke:none"
           d="m 16300,4611.64 c -43.1,18.67 -74.6,37.93 -86.9,56.94 l -13.8,36.04 c -17.2,44.99 -43.2,64.68 -59.6,55.91 l -2.8,-2.32 c 0,0 10.9,-72.77 19.8,-132.38 l -37.3,5.68 -19.8,-226.72 178.2,23.91 22.2,182.94" /></g><g
         transform="scale(1.25999)"
         id="g370"><path
           id="path372"
           style="fill:#122f5b;fill-opacity:1;fill-rule:nonzero;stroke:none"
           d="m 16300,3751.61 -164.5,-1439.14 c 0,0 -156,-1231.59 -282,-1505.404 h -279.3 l 60.8,2752.314 492.4,309.53 172.6,-117.3" /></g><g
         transform="scale(1.25507)"
         id="g374"><path
           id="path376"
           style="fill:#f99893;fill-opacity:1;fill-rule:nonzero;stroke:none"
           d="m 16300,5395.86 c 0,0 -4.8,-48.44 -9,-108.76 -86.5,-94.73 -248.7,-62.23 -270,-53.06 1.2,30.35 0,91.78 0,91.78 l 279,70.04" /></g><g
         transform="scale(1.32477)"
         id="g378"><path
           id="path380"
           style="fill:#224887;fill-opacity:1;fill-rule:nonzero;stroke:none"
           d="m 15628,3700.58 c 0,0 296.9,-382.94 226.6,-992.48 -70.3,-609.47 -54.7,-828.3 -54.7,-828.3 0,0 382.9,-351.61 500.1,-859.54 0,0 -168,-117.233 -281.3,-136.782 0,0 -562.6,859.622 -605.6,961.152 -43,101.6 -310.3,1698.86 -310.3,1698.86 l 525.2,157.09" /></g><g
         transform="scale(1.22229)"
         id="g382"><path
           id="path384"
           style="fill:#f99893;fill-opacity:1;fill-rule:nonzero;stroke:none"
           d="m 16285.4,5824.89 c 14.6,-39.76 0.6,-81.48 -31.1,-93.18 -31.9,-11.7 -69.5,11.04 -84.1,50.81 -14.7,39.76 -0.8,81.48 31.1,93.18 31.8,11.7 69.4,-11.04 84.1,-50.81" /></g><g
         transform="scale(1.27488)"
         id="g386"><path
           id="path388"
           style="fill:#ffc0bb;fill-opacity:1;fill-rule:nonzero;stroke:none"
           d="m 15616.7,5364.34 c -8.8,16.54 -16.1,34.04 -21.9,52.23 -16.3,48.95 -23.6,100.64 -26.4,145.51 -0.6,9.65 -1.7,19.29 -3.1,28.86 -5.4,38.59 -3.9,79.31 6.6,120.87 33.7,133.67 153.4,231.17 291.2,236.66 185.6,7.29 333.6,-144.02 327.4,-324.74 20,10.27 42.1,12 61.3,2.67 36.7,-17.96 48.2,-69.66 25.8,-115.46 -22.4,-45.89 -70.3,-68.56 -107,-50.6 -5.1,2.43 -9.7,5.65 -13.8,9.34 -20.9,-153.19 -150.9,-267.56 -301.9,-259.79 -73.9,3.68 -139.7,36.08 -188.4,86.12 -3.3,2.91 -6.7,6.36 -10.3,10.36 -15.7,17.41 -28.7,37.02 -39.5,57.97" /></g><g
         transform="scale(1.24821)"
         id="g390"><path
           id="path392"
           style="fill:#333333;fill-opacity:1;fill-rule:nonzero;stroke:none"
           d="m 16239,5699.82 c -0.9,-16.66 11.9,-30.76 28.6,-31.64 16.5,-0.89 30.7,11.93 31.6,28.6 0.8,16.58 -11.9,30.76 -28.6,31.64 -16.7,0.8 -30.8,-11.93 -31.6,-28.6" /></g><g
         transform="scale(1.22772)"
         id="g394"><path
           id="path396"
           style="fill:#333333;fill-opacity:1;fill-rule:nonzero;stroke:none"
           d="m 16237.9,5794.98 c -0.8,-16.94 12.2,-31.28 29.1,-32.17 16.9,-0.9 31.3,12.13 32.2,29.08 0.8,16.85 -12.2,31.27 -29.1,32.17 -16.9,0.81 -31.3,-12.14 -32.2,-29.08" /></g><g
         transform="scale(1.25441)"
         id="g398"><path
           id="path400"
           style="fill:#333333;fill-opacity:1;fill-rule:nonzero;stroke:none"
           d="m 16133.5,5721.65 c 13.7,7.26 27.8,12.67 42.2,16.26 14.5,3.43 29.3,4.71 43.8,3.35 7.2,-0.64 14.4,-2.07 21.4,-4.06 3.6,-0.96 7,-2.24 10.5,-3.43 1.7,-0.64 3.4,-1.44 5.2,-2.16 1.6,-0.63 3.4,-1.35 5,-2.15 13.4,-6.46 26,-14.83 38.4,-24.15 -9.2,12.51 -20.9,23.28 -34.4,31.49 -6.8,4.14 -14,7.57 -21.6,10.12 -7.6,2.55 -15.5,4.3 -23.6,5.02 -15.9,1.44 -32.2,-0.72 -47.1,-6.06 -7.4,-2.63 -14.6,-6.05 -21.3,-10.04 -6.7,-4.07 -13,-8.61 -18.5,-14.19" /></g><g
         transform="scale(1.23229)"
         id="g402"><path
           id="path404"
           style="fill:#333333;fill-opacity:1;fill-rule:nonzero;stroke:none"
           d="m 16300,5824.34 c -5.5,5.68 -12,10.3 -18.8,14.44 -6.9,4.06 -14.1,7.55 -21.8,10.23 -15.1,5.43 -31.6,7.63 -47.9,6.16 -8.2,-0.73 -16.2,-2.51 -23.9,-5.11 -7.8,-2.59 -15.2,-6.08 -22,-10.3 -13.8,-8.36 -25.7,-19.32 -35,-32.06 12.5,9.5 25.4,18.02 39,24.59 1.7,0.81 3.5,1.54 5.2,2.19 1.8,0.73 3.4,1.54 5.2,2.19 3.5,1.22 7,2.52 10.7,3.49 7.1,2.03 14.4,3.49 21.8,4.14 14.8,1.38 29.8,0.08 44.5,-3.41 14.7,-3.65 29.1,-9.17 43,-16.55" /></g><g
         transform="scale(1.28539)"
         id="g406"><path
           id="path408"
           style="fill:#ffffff;fill-opacity:1;fill-rule:nonzero;stroke:none"
           d="m 16295.6,4599.86 c -7,7.31 -13.7,15.64 -19.9,24.12 -6,8.48 -11.8,17.27 -16.9,26.53 -5.2,9.1 -9.8,18.59 -13.8,28.32 -4.2,9.72 -7.3,19.84 -10.5,30.03 1.3,-10.58 3.4,-21.17 6.7,-31.35 1.5,-5.22 3.5,-10.2 5.4,-15.25 2.1,-4.91 4.2,-9.96 6.6,-14.71 4.9,-9.65 10.3,-19.06 16.6,-27.85 5,-7.08 10.3,-13.85 16.3,-20.38 -5.4,-1.01 -11.1,-1.72 -16.6,-2.03 -7.7,-0.38 -15.5,-0.07 -23.1,1.09 -3.9,0.39 -7.6,1.33 -11.4,2.1 -3.8,1.17 -7.6,2.03 -11.2,3.51 -7.4,2.49 -14.4,6.3 -21.3,10.19 6.2,-4.98 12.7,-9.81 20,-13.15 7.2,-3.66 15,-6.22 23,-7.94 7.9,-1.63 16.1,-2.56 24.2,-2.41 8.2,0.08 16.2,0.93 24.5,3.03 l 5.8,1.56 -4.4,4.59" /></g><g
         transform="scale(1.23618)"
         id="g410"><path
           id="path412"
           style="fill:#f99893;fill-opacity:1;fill-rule:nonzero;stroke:none"
           d="m 16284.4,5769.28 c -8.5,-13.83 -15.9,-28.31 -22.5,-43.11 -6.6,-14.8 -12.4,-30.01 -17,-45.79 -2,-7.92 -4,-16.01 -4.5,-24.67 -0.1,-2.26 -0.1,-4.45 0.2,-6.88 0.1,-1.13 0.5,-2.42 0.8,-3.64 0.4,-1.29 0.8,-2.58 1.7,-3.96 l 1.5,-1.94 1.3,-1.05 c 0.9,-0.73 1.7,-1.54 2.6,-2.1 1.7,-1.3 3.4,-2.59 5.3,-3.56 7.2,-4.45 14.8,-7.61 22.6,-10.36 7.7,-2.59 15.6,-4.77 23.6,-6.15 -14.6,6.96 -29.4,13.84 -41.9,22.9 -1.5,1.13 -2.9,2.42 -4.4,3.55 l -2,1.95 -1,0.89 -0.2,0.56 c -1,1.54 -1.1,5.59 -0.7,9.14 0.7,7.37 2.6,15.13 4.7,22.65 4.2,15.29 9.5,30.42 14.6,45.63 5.3,15.21 10.5,30.5 15.3,45.94" /></g><g
         transform="scale(1.29266)"
         id="g414"><path
           id="path416"
           style="fill:#3660ac;fill-opacity:1;fill-rule:nonzero;stroke:none"
           d="m 16151.2,4111.84 v 0.08 c 39.7,220.71 56.7,457.66 56.7,457.66 2.4,54.62 1.7,102.97 -1.2,145.67 -55.3,45.02 -132.4,108.85 -132.4,108.85 l -131.9,224.73 v 0.15 c -50.1,4.65 -103.2,6.81 -103.2,6.81 l -329.2,-247.71 -7.4,205.01 c -1.6,-1.24 -3.3,-2.48 -4.8,-3.79 -142.3,-116.2 -234.6,-284.15 -254.5,-468.73 -14,-130.27 -12.3,-269.13 -4.5,-393.22 v 0 c 0,0 -56.3,-718.44 -83.3,-833.24 0,0 746.2,-74.27 1144.5,0 0,0 -152.4,484.73 -148.8,797.73" /></g><g
         transform="scale(1.20929)"
         id="g418"><path
           id="path420"
           style="fill:#333333;fill-opacity:1;fill-rule:nonzero;stroke:none"
           d="m 16241.7,3788.32 -610.1,-36.79 c -38.5,-2.32 -81.2,22.41 -95.4,55.15 l -321,742.67 c -14.1,32.83 5.7,61.27 44.1,63.59 l 610.1,36.8 c 38.6,2.31 81.3,-22.33 95.4,-55.16 l 321.1,-742.66 c 14.1,-32.83 -5.7,-61.28 -44.2,-63.6" /></g><g
         transform="scale(1.16582)"
         id="g422"><path
           id="path424"
           style="fill:#c8eef1;fill-opacity:1;fill-rule:nonzero;stroke:none"
           d="m 16273.9,4773.14 -215.4,-12.95 c -17.3,-1.12 -36.4,10.03 -42.8,24.7 l -6,13.81 c -6.3,14.67 2.5,27.45 19.8,28.48 l 215.4,13.04 c 17.3,1.02 36.5,-10.04 42.8,-24.79 l 6,-13.81 c 6.3,-14.67 -2.5,-27.45 -19.8,-28.48" /></g><g
         transform="scale(1.148)"
         id="g426"><path
           id="path428"
           style="fill:#ffc0bb;fill-opacity:1;fill-rule:nonzero;stroke:none"
           d="m 16287.3,4190.5 -2.7,-1.21 c -16.2,-7.15 -35.2,-0.96 -44.1,14.37 l -100.7,174.91 c -5,8.45 -4.8,18.99 0.7,27.18 17,25.43 53.7,77.79 66.3,75.87 16.5,-2.53 -34,-89.55 -27.1,-91.29 6.9,-1.74 78.3,56.19 84.4,46.78 5.4,-8.45 -57.5,-75.87 -54.6,-81.1 3,-5.23 75.5,36.94 83.4,29.35 7.1,-6.79 -61.4,-61.23 -60.4,-65.06 l 54.8,-129.8" /></g><g
         transform="scale(1.30436)"
         id="g430"><path
           id="path432"
           style="fill:#ffc0bb;fill-opacity:1;fill-rule:nonzero;stroke:none"
           d="m 14843.3,3510.45 c 0.7,10.74 90.5,78.43 85.4,83.19 -5.2,4.75 -105.3,-55.2 -112.6,-41.41 -7.3,13.88 104.7,75.91 94.4,84.49 -10.3,8.67 -123.3,-57.81 -127.9,-44.08 -4,11.5 120.7,88.93 160.5,113.23 5.1,3.15 4.7,10.74 -0.8,13.34 -83.7,39.41 -87.8,47.38 -81.4,55.58 4.6,5.83 88,-4.82 166.7,-10.35 l 95.4,-9.12 c 26.9,6.29 828.6,195.73 872.3,248.32 44.4,53.44 -74.9,342.62 -74.9,342.62 l 260.5,111.78 c 0,0 119.1,-474.33 4.3,-620.45 -61.8,-78.74 -1057.5,-219.27 -1057.5,-219.27 -15.7,-12.11 -58.6,-40.94 -58.6,-40.94 -173.8,-110.7 -154.2,-102.19 -159.3,-96.52 -5,5.6 53.3,71.45 45.5,75.44 -7.9,4.06 -112.6,-56.58 -112,-45.85" /></g><g
         transform="scale(1.30241)"
         id="g434"><path
           id="path436"
           style="fill:#3660ac;fill-opacity:1;fill-rule:nonzero;stroke:none"
           d="m 15823,5011.02 c 0,0 292,-110.65 477,-540.62 0,0 -90.8,-200.7 -391.4,-207.61 l -85.6,748.23" /></g><g
         transform="scale(1.30241)"
         id="g438"><path
           id="path440"
           style="fill:#fbf9eb;fill-opacity:1;fill-rule:nonzero;stroke:none"
           d="m 16300,4470.4 c -19.8,-33.24 -45.8,-62.04 -75.2,-86.45 -29,-24.8 -61.5,-45.15 -95.7,-61.5 -34.9,-14.98 -70.5,-28.34 -107.8,-35.94 -18.4,-4.84 -37.5,-6.29 -56.1,-9.6 -19,-1.92 -38,-2.84 -56.9,-4.3 l 9.9,-7.52 c -9.6,38.08 -20.5,75.47 -32,112.79 -11.9,37.24 -24,74.4 -38.7,110.64 -14.3,36.4 -30.5,72.1 -48.8,106.73 -19,33.93 -39.9,68.26 -69.9,93.59 26.7,-28.41 45.3,-62.88 61.3,-97.97 16.4,-35.01 30.7,-71.02 43.1,-107.65 12.3,-36.7 24.9,-73.32 35.8,-110.56 10.9,-37.09 21,-74.63 30.1,-112.1 l 1.9,-8.29 8,0.69 c 19.5,1.84 39,2.99 58.5,5.3 19.2,3.68 38.8,5.52 57.8,10.75 19,4.83 38.1,9.59 56.4,16.73 18.8,5.68 36.3,14.98 54.1,23.19 34.6,18.58 67.1,41 95.4,67.95 27.8,27.34 52.8,58.12 68.8,93.52" /></g><g
         transform="scale(1.14892)"
         id="g442"><path
           id="path444"
           style="fill:#ffc0bb;fill-opacity:1;fill-rule:nonzero;stroke:none"
           d="m 16214.5,4314.75 c 0,0 72.7,22.1 79.1,13.92 6.4,-8.18 -79.4,-54.48 -79.1,-52.31 0.4,2.09 0,38.39 0,38.39" /></g><g
         transform="scale(1.27111)"
         id="g446"><path
           id="path448"
           style="fill:#333333;fill-opacity:1;fill-rule:nonzero;stroke:none"
           d="m 16278.4,5682.28 -7.4,0.86 -4.9,61.68 -27.6,56.96 c 0,0 -108,153.33 -111.7,157.1 -3.9,3.78 -86.2,53.19 -91.3,55.7 -5,2.6 -120.3,-16.44 -120.3,-16.44 0,0 -202.8,43.66 -168.5,-69.62 34.3,-113.37 182.4,-172.29 190,-167.26 -24.1,25.34 -26.6,97.55 -26.6,97.55 114,-131.77 328.4,-218.39 328.4,-218.39 0,0 22.5,17.15 61.5,2.68 l -21.6,39.18" /></g><g
         transform="scale(1.24248)"
         id="g450"><path
           id="path452"
           style="fill:#ffffff;fill-opacity:1;fill-rule:nonzero;stroke:none"
           d="m 16134.6,5539.87 c 8.1,-35.82 42.7,-62.38 83.9,-61.65 41.1,0.72 74.8,28.41 81.5,64.46 l -165.4,-2.81" /></g><path
         id="path454"
         style="fill:#55769f;fill-opacity:1;fill-rule:nonzero;stroke:none"
         d="m 7505.08,3765.4 h -173.7 v 460.1 c 0,116 -94.36,210.3 -210.34,210.3 H 5387.09 c -115.97,0 -210.32,-94.3 -210.32,-210.3 v -460.1 h -173.7 v 460.1 c 0,211.7 172.27,384 384.02,384 h 1733.95 c 211.76,0 384.04,-172.3 384.04,-384 v -460.1" /><path
         id="path456"
         style="fill:#224887;fill-opacity:1;fill-rule:nonzero;stroke:none"
         d="m 5322.78,3814.2 h -465.72 v 38.9 c 0,51.1 41.35,92.4 92.36,92.4 h 281 c 51.01,0 92.36,-41.3 92.36,-92.4 v -38.9" /><path
         id="path458"
         style="fill:#224887;fill-opacity:1;fill-rule:nonzero;stroke:none"
         d="m 7651.09,3814.2 h -465.73 v 38.9 c 0,51.1 41.35,92.4 92.37,92.4 h 280.99 c 51.01,0 92.37,-41.3 92.37,-92.4 v -38.9" /><path
         id="path460"
         style="fill:#feb546;fill-opacity:1;fill-rule:nonzero;stroke:none"
         d="M 8070.61,629.602 H 4345.66 c -137.8,0 -249.51,111.699 -249.51,249.5 V 3564.7 c 0,137.8 111.71,249.5 249.51,249.5 h 3724.95 c 137.8,0 249.51,-111.7 249.51,-249.5 V 879.102 c 0,-137.801 -111.71,-249.5 -249.51,-249.5" /><path
         id="path462"
         style="fill:#f4a640;fill-opacity:1;fill-rule:nonzero;stroke:none"
         d="M 5387.69,629.602 H 4792.14 V 3814.2 h 595.55 V 629.602" /><path
         id="path464"
         style="fill:#f4a640;fill-opacity:1;fill-rule:nonzero;stroke:none"
         d="M 7716,629.602 H 7120.45 V 3814.2 H 7716 V 629.602" /><path
         id="path466"
         style="fill:#ffffff;fill-opacity:1;fill-rule:nonzero;stroke:none"
         d="m 6849.68,2379.2 h -438.26 v 438.3 h -314.7 v -438.3 h -438.26 v -314.7 h 438.26 v -438.2 h 314.7 v 438.2 h 438.26 v 314.7" /><path
         id="path468"
         style="fill:#333333;fill-opacity:1;fill-rule:nonzero;stroke:none"
         d="m 7619.55,11197.4 c 0,0 301.09,106.3 495.87,327.4 0,0 144.39,-198.5 243.28,-226.9 0,0 8.91,316.4 -316.56,359.8 -325.47,43.4 -494.71,-209.9 -422.59,-460.3" /><g
         transform="scale(1.40059)"
         id="g470"><path
           id="path472"
           style="fill:#ffffff;fill-opacity:1;fill-rule:nonzero;stroke:none"
           d="m 16300,11201.9 c 0,0 0,0.1 -0.1,0.2 0.1,-0.1 0.1,-0.2 0.1,-0.2 m -0.6,2.9 c -0.1,0.2 -0.1,0.3 -0.2,0.4 0.1,-0.1 0.1,-0.2 0.2,-0.4 m -0.8,3.4 c -0.3,1.1 -0.5,2.1 -0.7,3.2 0.2,-1.1 0.4,-2.1 0.7,-3.2 m -0.9,3.6 c -0.2,0.9 -0.4,1.9 -0.6,2.9 0.2,-1 0.4,-1.9 0.6,-2.9 m -0.8,3.6 c -0.3,0.9 -0.4,1.7 -0.6,2.6 0.2,-0.8 0.4,-1.7 0.6,-2.6 m -0.8,3.6 c -0.2,0.9 -0.5,1.6 -0.6,2.4 0.1,-0.8 0.4,-1.6 0.6,-2.4 m -1,3.7 c -0.1,0.6 -0.2,1.3 -0.4,1.9 0.2,-0.6 0.3,-1.3 0.4,-1.9 m -0.8,3.7 c -0.1,0.3 -0.2,0.8 -0.3,1.1 0.1,-0.4 0.2,-0.7 0.3,-1.1 m -0.9,3.8 c 0,0.2 -0.1,0.4 -0.2,0.6 0.1,-0.2 0.2,-0.4 0.2,-0.6 m -5281.6,1779.3 c 0.6,0.4 1.4,0.7 2,1 -0.6,-0.3 -1.4,-0.6 -2,-1 m 4.4,2.2 c 1.5,0.8 3.1,1.6 4.7,2.4 -1.6,-0.8 -3.1,-1.6 -4.7,-2.4 m 15.4,7.7 c 0.6,0.3 1.2,0.6 1.8,0.9 -0.6,-0.3 -1.2,-0.6 -1.8,-0.9 m 7.2,3.6 c 0.1,0.1 0.3,0.2 0.6,0.3 -0.3,-0.1 -0.4,-0.2 -0.6,-0.3" /></g><g
         transform="scale(1.40391)"
         id="g474"><path
           id="path476"
           style="fill:#f1fdfd;fill-opacity:1;fill-rule:nonzero;stroke:none"
           d="m 16300,10980.4 c -330.3,2.8 -660.9,0.4 -988.7,37.7 -398.1,45.1 -805.3,159.9 -1130.4,384.4 h 1419.3 c -32.7,142 -159.7,248 -311.7,248 -27.9,0 -54.9,-3.6 -80.7,-10.3 -75,160.4 -237.8,271.5 -426.6,271.5 -48.7,0 -95.8,-7.4 -140.1,-21.2 -101.5,168.2 -286.1,280.7 -497,280.7 -219.1,0 -409.9,-121.4 -508.6,-300.7 -28.6,5.3 -58.3,7 -88.2,7 -25.2,0 -50.5,-1.2 -75.4,-2.5 -255.6,-13.8 -511.1,-27.6 -766.7,-41.4 -49.7,-2.7 -99.8,-5.3 -149.8,-5.3 -86.2,0 -171.8,7.7 -252.7,36.3 -127.7,45 -242.4,155.4 -249.5,290.7 -4,74.5 21.5,159.6 -26,217.1 -36.5,44.2 -100.7,50.8 -158,54 -166.1,9.4 -332.2,18.8 -498.3,28.2 -148.5,8.4 -302,18.1 -434.5,85.8 -114.7,58.6 -209.9,173.1 -219.1,298.2 88.8,48.1 178.1,94.9 268.4,140.1 0.7,0.3 1.4,0.7 2,1 0.8,0.4 1.6,0.8 2.4,1.2 1.6,0.8 3.1,1.6 4.7,2.4 v 0 c 3.5,1.7 7.1,3.5 10.6,5.3 0.7,0.3 1.3,0.6 1.9,0.9 1.8,0.9 3.6,1.8 5.3,2.6 0.3,0.1 0.4,0.2 0.6,0.3 686.6,340.3 1445.3,587.1 2203.8,587.1 125.3,0 250.6,-6.8 375.5,-20.9 -64.2,-21.7 -133.5,-28.8 -205.5,-28.8 -67,0 -136.3,6.1 -206.2,12.2 -69.8,6.1 -140.2,12.2 -209.1,12.2 -84.2,0 -166.4,-9.1 -242.9,-38.4 -160.4,-61.3 -280.9,-215.9 -301.1,-386.3 -20.2,-170.4 60.7,-349 202.1,-446.1 101.2,-69.5 212.7,-93.8 330.3,-93.8 259.2,0 547.4,118 817.7,130.4 15.6,0.7 31.2,1 46.9,1 173.2,0 344.6,-42.1 513.3,-83.9 40.4,-10 83,-21.2 112.5,-50.7 55.7,-56 40.1,-147.9 54.7,-225.5 24.6,-130.9 143.9,-227.2 271.4,-265.6 77.1,-23.2 157.2,-29.4 238,-29.4 52.9,0 106.1,2.7 158.8,4.9 135.7,5.9 271.7,8.8 407.6,8.8 102.9,0 205.8,-1.6 308.6,-5 166,-268.8 291.3,-562.3 365,-870.4 0.1,-0.2 0.2,-0.4 0.2,-0.6 0.2,-0.9 0.4,-1.8 0.6,-2.7 0.2,-0.3 0.2,-0.8 0.3,-1.1 0.1,-0.6 0.3,-1.2 0.4,-1.7 0.2,-0.7 0.3,-1.4 0.4,-2 0.2,-0.4 0.3,-0.8 0.4,-1.2 0.1,-0.9 0.4,-1.6 0.6,-2.5 0,-0.3 0.1,-0.6 0.2,-0.9 0.2,-1 0.3,-1.7 0.6,-2.7 0,-0.2 0.1,-0.5 0.2,-0.7 0.2,-0.9 0.4,-1.9 0.6,-2.8 0.1,-0.2 0.1,-0.3 0.2,-0.5 0.2,-1.1 0.4,-2 0.7,-3.1 v 0 c 0.2,-1 0.4,-2 0.6,-3 0.1,-0.1 0.1,-0.3 0.2,-0.4 0.2,-0.9 0.4,-1.8 0.5,-2.7 0.1,-0.1 0.1,-0.2 0.1,-0.3 14.8,-64.6 27.5,-129.6 38.6,-194.9" /></g><g
         transform="scale(1.34364)"
         id="g478"><path
           id="path480"
           style="fill:#fcffff;fill-opacity:1;fill-rule:nonzero;stroke:none"
           d="m 16300,11914 h -1483 c -127.7,88.2 -243.4,192.5 -341.7,315.2 -41.9,52.3 -82.1,108.9 -140,142.4 -27.5,15.9 -57.2,25.7 -88.1,31.4 103.2,187.3 302.5,314.2 531.4,314.2 220.4,0 413.2,-117.5 519.3,-293.3 46.3,14.4 95.5,22.2 146.4,22.2 197.3,0 367.3,-116.1 445.7,-283.7 26.9,7 55.2,10.8 84.3,10.8 158.8,0 291.6,-110.8 325.7,-259.2" /></g><path
         id="path482"
         style="fill:#b20b1f;fill-opacity:1;fill-rule:nonzero;stroke:none"
         d="m 10123.1,11899 -232.11,426.1 -232.09,-426.1 c 0,0 -513.05,-953.4 -348.14,-1360 1.65,-4 3.32,-8.1 5.02,-12.1 216.13,-507.6 934.32,-507.6 1150.42,0 1.7,4 3.4,8.1 5,12.1 164.9,406.6 -348.1,1360 -348.1,1360" /><path
         id="path484"
         style="fill:#e72c3b;fill-opacity:1;fill-rule:nonzero;stroke:none"
         d="M 9890.99,12325.1 9658.9,11899 c 0,0 -427.05,-793.7 -376.57,-1241.5 295.31,-287.8 829.07,-219.1 1010.27,206.4 1.7,4 3.4,8 5,12.1 118.3,291.7 -112.3,864.8 -252.1,1165.4 l -154.51,283.7" /><path
         id="path486"
         style="fill:#ffffff;fill-opacity:1;fill-rule:nonzero;stroke:none"
         d="m 10764.1,11723.4 c -31.6,-26.9 -62,-54.7 -91.8,-83 -59.3,-56.7 -115.6,-115.9 -169.8,-176.6 -54.1,-60.9 -105.8,-123.6 -155.5,-187.8 -33.8,-43.6 -66.6,-88 -98.5,-133.1 l -23.7,18.9 c -15.7,12.3 -31.9,24.2 -47.7,36.3 -16,12 -32.4,23.6 -48.6,35.4 -32.9,23.1 -66.1,46 -100.4,67.6 -34.4,21.5 -69.23,42.6 -106.36,61.3 19.99,-36.4 42.29,-70.5 65.06,-104.1 22.7,-33.6 46.7,-65.9 71,-98 12.3,-15.7 24.5,-31.7 37.1,-47.3 12.6,-15.4 25.1,-31.1 38,-46.4 l 38.7,-45.6 39.7,-44.7 52.9,-59.6 60.8,67.7 c 54.3,60.6 106.2,123.2 156.2,187.2 50,64 98,129.6 143.7,196.9 45.6,67.5 89,136.7 129.4,208.2 20.1,35.8 39.6,72.1 57.8,109.4 18.3,37.2 35.9,75 50.8,114.8 -34.9,-24.3 -67.2,-50.7 -98.8,-77.5" /><path
         id="path488"
         style="fill:#f9fefe;fill-opacity:1;fill-rule:nonzero;stroke:none"
         d="m 8752.67,12835.9 h -2057.3 c -1.23,12.7 -1.9,25.7 -1.9,38.8 0,221 179.14,400.1 400.13,400.1 70.62,0 136.92,-18.3 194.51,-50.4 81.37,224 296.1,384 548.22,384 5.11,0 10.22,-0.1 15.29,-0.2 39.12,-132.1 -43.61,-280.6 -2.91,-413.6 55.72,-182 291.13,-222.4 481.38,-229.7 149.01,-5.7 325.64,-31 422.58,-129" /><path
         id="path490"
         style="fill:#fcffff;fill-opacity:1;fill-rule:nonzero;stroke:none"
         d="m 9299.54,12835.9 h -546.87 c -96.94,98 -273.57,123.3 -422.58,129 -190.25,7.3 -425.66,47.7 -481.38,229.7 -40.7,133 42.03,281.5 2.91,413.6 205.52,-5.3 384.57,-117 484.2,-281.9 44.47,13.8 91.77,21.3 140.8,21.3 189.66,0 353.2,-111.7 428.56,-272.9 25.92,6.8 53.11,10.4 81.14,10.4 152.69,0 280.43,-106.5 313.22,-249.2" /><path
         id="path492"
         style="fill:#f9fefe;fill-opacity:1;fill-rule:nonzero;stroke:none"
         d="m 14324.6,15379.8 h -2118 c -1,10.4 -1.6,20.9 -1.6,31.6 0,179.7 145.7,325.4 325.5,325.4 57.4,0 111.3,-14.9 158.2,-41 66.1,182.2 240.8,312.3 445.8,312.3 172.4,0 323.2,-91.9 406.3,-229.4 36.2,11.2 74.6,17.3 114.5,17.3 154.2,0 287.3,-90.8 348.5,-221.9 21.1,5.5 43.2,8.4 66,8.4 124.2,0 228.1,-86.6 254.8,-202.7" /><path
         id="path494"
         style="fill:#9cdedc;fill-opacity:1;fill-rule:nonzero;stroke:none"
         d="m 2725.37,844.902 c 40.45,-39.3 74.39,-117 110.31,-199.402 29.16,-66.801 60.51,-138.398 102.29,-209.199 h 1061.36 c -28.8,18 -58.25,35 -88.57,50.402 -68.56,35 -138.23,62.199 -199.7,86.098 -90.69,35.398 -176.36,68.801 -220.24,112.699 -39.97,40 -73.53,116.902 -109.07,198.301 -52.03,119.299 -116.8,267.699 -241.49,388.699 -168.35,163.3 -382.48,217.9 -554.53,261.7 -120.36,30.7 -234.04,59.7 -287.2,113.1 -28.64,28.8 -57.51,82.6 -88.08,139.6 -19.27,36 -39.19,73.1 -62.82,111.8 -195.21,319.9 -532.99,544.3 -903.53,600.3 -21.02,3.2 -40.61,5.6 -59.57,8 -30.48,3.8 -311.253,61.1 -404.858,-3.2 -175.957,-120.9 -169.656,-385.1 14.078,-493.8 21.121,-12.5 43.441,-24 67.035,-34.3 92.227,-40.2 179.705,-51.1 249.995,-59.9 15.89,-2 30.89,-3.9 44.29,-5.9 195.53,-29.5 380.97,-152.7 483.98,-321.5 15,-24.6 30.23,-53 46.36,-83.1 5.08,-9.5 10.33,-19.2 15.72,-29.2 l 262.26,-8.8 -189.34,-114 c 28.6,-42.7 61.92,-85.8 102.09,-126.2 169.09,-169.9 387.19,-225.5 562.43,-270.202 119.5,-30.496 232.37,-59.199 286.8,-111.996" /><path
         id="path496"
         style="fill:#8fd0d6;fill-opacity:1;fill-rule:nonzero;stroke:none"
         d="m 2874.06,1763.8 c 41.2,-60.7 63.96,-168.7 88.04,-283.1 35.88,-170.3 76.54,-363.4 197.44,-547.399 133.73,-203.602 324,-327.102 476.88,-426.199 37.31,-24.301 73.32,-47.704 106.54,-70.801 h 985.69 c -101.48,215.898 -251.36,408.898 -438.38,558.801 -78.15,62.598 -159.77,115.598 -231.78,162.298 -106.27,69 -206.63,134.1 -250.99,201.6 -40.39,61.5 -62.89,168.4 -86.72,281.5 -34.88,165.7 -78.31,371.9 -205.32,558.9 -171.5,252.5 -429.98,378.5 -637.68,479.7 -145.28,70.8 -282.52,137.7 -336.18,219.8 -28.91,44.3 -51.52,120.5 -75.45,201.1 -15.09,50.9 -30.69,103.5 -50.6,159 -91.55,255.6 -247.26,485.1 -446.18,667.5 l -177.52,-280.4 78.19,364.7 c -134.92,105.9 -285.87,191.6 -447.7,251.3 -25.94,9.6 -50.27,17.9 -73.81,25.9 -37.83,12.9 -380.546,159.9 -516.772,102.6 C 644.105,4311.7 561.07,4109 610.855,3932.7 l 352.723,-29.8 -267.637,-121.5 c 7.497,-8.1 15.266,-16.1 23.645,-23.7 23.629,-21.5 49.027,-42.1 76.383,-61.4 106.922,-75.6 215.521,-112.6 302.781,-142.3 19.73,-6.7 38.36,-13 54.89,-19.1 241.39,-89.2 445.24,-295.1 532.02,-537.3 12.64,-35.3 24.57,-75.5 37.19,-118.1 19.66,-66.3 42.03,-141.6 73.89,-219.6 l 399.31,-76.8 -333.6,-58.9 c 9.45,-16.6 19.44,-33.1 30.15,-49.4 170.68,-261.2 433.96,-389.5 645.51,-492.6 144.25,-70.3 280.5,-136.7 335.95,-218.4" /><path
         id="path498"
         style="fill:#74bdc1;fill-opacity:1;fill-rule:nonzero;stroke:none"
         d="m 2575.45,4033.2 c -7.63,-127 -16.84,-281.5 11.63,-446.1 205.18,-115.5 605.88,-341.2 560.21,-316.9 -42.82,22.8 -338.27,91.3 -511.33,130.3 103.08,-291.1 307.99,-503 476.58,-677.2 130.3,-134.7 253.38,-261.9 281.69,-373.6 21.03,-83 2.94,-210.7 -16.22,-345.8 -28.54,-201.3 -60.88,-429.4 -1.54,-679.6 65.65,-276.7 225.25,-488.101 353.5,-657.898 52.25,-69.203 101.59,-134.601 138.86,-195.8 6.85,-11.204 13.36,-22.7 19.7,-34.301 h 963.93 C 4808.09,613.602 4737.66,784.5 4642.18,941.402 4581.37,1041.3 4512.91,1131.9 4452.5,1212 c -89.15,118 -173.34,229.5 -195.12,321.3 -19.82,83.6 -1.92,209.8 17.03,343.5 27.76,195.7 62.29,439.4 -2.55,695.3 -87.56,345.5 -321.04,586.8 -508.66,780.7 -131.25,135.7 -255.2,263.8 -281.37,375.3 -14.1,60.1 -8.54,152.7 -2.65,250.8 3.72,61.8 7.57,125.8 7.87,194.7 2.34,532.3 -223.04,1056 -607.52,1422.5 l -176.95,-78.1 87.35,158.3 c -22.13,18.5 -43.32,35.6 -63.84,52.1 -36.39,29.2 -353.96,327.1 -526.31,318.5 -323.99,-16.1 -526.45,-362.8 -375.42,-649.9 17.36,-33 37.05,-65.7 59.36,-97.8 87.22,-125.6 191.69,-209.5 275.63,-276.9 18.96,-15.2 36.89,-29.6 52.6,-42.9 229.39,-194.1 371.06,-501.3 369.74,-801.8 -0.19,-43.8 -3.13,-92.7 -6.24,-144.4" /><g
         transform="scale(1.52524)"
         id="g500"><path
           id="path502"
           style="fill:#082948;fill-opacity:1;fill-rule:nonzero;stroke:none"
           d="M 16300,286.054 H 1427.51 v 127.26 H 16300 v -127.26" /></g><g
         transform="scale(1.48778)"
         id="g504"><path
           id="path506"
           style="fill:#ffffff;fill-opacity:1;fill-rule:nonzero;stroke:none"
           d="m 16300,7182.29 c -30.8,52.1 -61.8,104.1 -92.4,156.29 v 0 c 30.6,-52.17 61.6,-104.2 92.4,-156.29" /></g><g
         transform="scale(1.51445)"
         id="g508"><path
           id="path510"
           style="fill:#f9fefe;fill-opacity:1;fill-rule:nonzero;stroke:none"
           d="m 16300,6521.72 h -2689.8 c -1.7,17.43 -2.6,35.13 -2.6,53.02 0,301.92 244.8,546.65 546.7,546.65 96.4,0 187,-25.09 265.7,-68.95 111.1,306.02 404.5,524.61 748.9,524.61 289.5,0 542.9,-154.43 682.4,-385.39 23.1,7.19 46.7,13.11 70.9,17.69 30.1,-51.27 60.5,-102.35 90.8,-153.54 103.3,-174.58 204.9,-349.88 287,-534.09" /></g><g
         transform="scale(1.37306)"
         id="g512"><path
           id="path514"
           style="fill:#74bdc1;fill-opacity:1;fill-rule:nonzero;stroke:none"
           d="m 15742.8,9761.94 h 243 v 269.56 h 269.6 v 243 h -269.6 v 269.6 h -243 v -269.6 h -269.6 v -243 h 269.6 z m 287.6,-44.57 h -332.1 v 269.61 h -269.6 v 332.12 h 269.6 v 269.6 h 332.1 v -269.6 h 269.6 v -332.12 h -269.6 v -269.61" /></g><g
         transform="scale(1.47859)"
         id="g516"><path
           id="path518"
           style="fill:#74bdc1;fill-opacity:1;fill-rule:nonzero;stroke:none"
           d="m 15961.8,4915.16 h 147.5 v 163.6 h 163.6 v 147.51 h -163.6 v 163.6 h -147.5 v -163.6 h -163.6 v -147.51 h 163.6 z m 174.6,-27.05 h -201.5 v 163.6 h -163.7 v 201.61 h 163.7 v 163.6 h 201.5 v -163.6 h 163.6 v -201.61 h -163.6 v -163.6" /></g><path
         id="path520"
         style="fill:#74bdc1;fill-opacity:1;fill-rule:nonzero;stroke:none"
         d="m 5301.09,10257.9 h 173.2 v 192.1 h 192.18 v 173.2 h -192.18 v 192.2 h -173.2 v -192.2 H 5108.91 V 10450 h 192.18 z m 204.96,-31.8 h -236.73 v 192.2 h -192.18 v 236.7 h 192.18 v 192.2 h 236.73 V 10655 h 192.19 v -236.7 h -192.19 v -192.2" /><path
         id="path522"
         style="fill:#74bdc1;fill-opacity:1;fill-rule:nonzero;stroke:none"
         d="m 4734.69,5715.8 h 114.9 v 127.5 h 127.51 v 114.9 h -127.51 v 127.5 h -114.9 v -127.5 h -127.51 v -114.9 h 127.51 z m 135.98,-21.1 h -157.06 v 127.5 H 4586.1 v 157.1 h 127.51 v 127.5 h 157.06 v -127.5 h 127.51 v -157.1 h -127.51 v -127.5" /><g
         transform="scale(1.04655)"
         id="g524"><path
           id="path526"
           style="fill:#74bdc1;fill-opacity:1;fill-rule:nonzero;stroke:none"
           d="m 15183,15736.9 h 165.5 v 183.6 h 183.6 v 165.5 h -183.6 v 183.6 H 15183 V 16086 h -183.7 v -165.5 h 183.7 z m 195.9,-30.4 h -226.3 v 183.7 h -183.7 v 226.2 h 183.7 v 183.6 h 226.3 v -183.6 h 183.5 v -226.2 h -183.5 v -183.7" /></g><g
         transform="scale(1.31147)"
         id="g528"><path
           id="path530"
           style="fill:#9cdedc;fill-opacity:1;fill-rule:nonzero;stroke:none"
           d="m 16147.2,7033.81 c -62.9,0 -114.1,-51.17 -114.1,-114.07 0,-62.91 51.2,-114.07 114.1,-114.07 62.9,0 114.1,51.16 114.1,114.07 0,62.9 -51.2,114.07 -114.1,114.07 z m 0,-266.96 c -84.3,0 -152.8,68.63 -152.8,152.89 0,84.25 68.5,152.8 152.8,152.8 84.3,0 152.8,-68.55 152.8,-152.8 0,-84.26 -68.5,-152.89 -152.8,-152.89" /></g><g
         transform="scale(1.1832)"
         id="g532"><path
           id="path534"
           style="fill:#9cdedc;fill-opacity:1;fill-rule:nonzero;stroke:none"
           d="m 16130.6,15422.4 c -69.7,0 -126.4,-56.7 -126.4,-126.4 0,-69.7 56.7,-126.4 126.4,-126.4 69.8,0 126.5,56.7 126.5,126.4 0,69.7 -56.7,126.4 -126.5,126.4 z m 0,-295.8 c -93.4,0 -169.3,76 -169.3,169.4 0,93.4 75.9,169.4 169.3,169.4 93.4,0 169.4,-76 169.4,-169.4 0,-93.4 -76,-169.4 -169.4,-169.4" /></g><path
         id="path536"
         style="fill:#8fd0d6;fill-opacity:1;fill-rule:nonzero;stroke:none"
         d="m 12077.5,14663 c -80.3,0 -145.6,-65.4 -145.6,-145.7 0,-80.2 65.3,-145.6 145.6,-145.6 80.3,0 145.6,65.4 145.6,145.6 0,80.3 -65.3,145.7 -145.6,145.7 z m 0,-340.8 c -107.6,0 -195.1,87.6 -195.1,195.1 0,107.6 87.5,195.1 195.1,195.1 107.6,0 195.1,-87.5 195.1,-195.1 0,-107.5 -87.5,-195.1 -195.1,-195.1" /><path
         id="path538"
         style="fill:#74bdc1;fill-opacity:1;fill-rule:nonzero;stroke:none"
         d="m 3084.68,6881.1 c -93.94,0 -170.36,-76.5 -170.36,-170.4 0,-93.9 76.42,-170.3 170.36,-170.3 93.94,0 170.36,76.4 170.36,170.3 0,93.9 -76.42,170.4 -170.36,170.4 z m 0,-398.6 c -125.86,0 -228.26,102.3 -228.26,228.2 0,125.9 102.4,228.3 228.26,228.3 125.86,0 228.26,-102.4 228.26,-228.3 0,-125.9 -102.4,-228.2 -228.26,-228.2" /><g
         transform="scale(1.22407)"
         id="g540"><path
           id="path542"
           style="fill:#ffffff;fill-opacity:1;fill-rule:nonzero;stroke:none"
           d="m 15807,515.004 466.9,1.388 c 14.4,0 26.1,11.762 26,26.225 -0.1,14.376 -11.7,26.059 -26.2,26.059 l -466.9,-1.391 c -14.5,-0.08 -26.1,-11.763 -26.1,-26.222 0.1,-14.38 11.8,-26.059 26.3,-26.059" /></g><g
         transform="scale(1.22373)"
         id="g544"><path
           id="path546"
           style="fill:#333333;fill-opacity:1;fill-rule:nonzero;stroke:none"
           d="m 16280.1,727.613 17.7,-145.377 c 2.2,-17.895 -7.8,-34.158 -20.9,-34.238 l -457.7,-1.309 c -11.9,0 -23.6,7.355 -29.9,21.247 -6.5,14.3 -7.8,35.876 12.5,64.882 40.5,57.448 172.7,72.24 239.1,120.616 1.4,1.063 2.9,1.555 4.6,1.555 l 210.6,0.651 c 11.9,0 22.1,-11.849 24,-28.027" /></g><g
         transform="scale(1.20722)"
         id="g548"><path
           id="path550"
           style="fill:#ffffff;fill-opacity:1;fill-rule:nonzero;stroke:none"
           d="m 16295.4,679.825 v 0 c 3.4,2.071 4.6,7.789 2.6,12.011 -9.2,20.214 -37.8,69.252 -95.7,58.981 -3.3,-0.582 -5.6,-5.054 -5,-9.61 l 0.1,-0.165 c 0.5,-4.391 3.5,-7.29 6.8,-6.792 51.8,9.028 76.2,-34.211 83.6,-51.111 1.6,-3.56 4.8,-4.97 7.6,-3.314" /></g><g
         transform="scale(1.20366)"
         id="g552"><path
           id="path554"
           style="fill:#ffffff;fill-opacity:1;fill-rule:nonzero;stroke:none"
           d="m 16295.4,662.73 v 0 c 3.4,2.077 4.6,7.727 2.6,12.047 -9.2,20.189 -37.9,69.456 -96,59.155 -3.3,-0.665 -5.6,-5.069 -5,-9.719 l 0.1,-0.085 c 0.5,-4.488 3.5,-7.396 6.8,-6.812 52,9.055 76.4,-34.313 83.9,-51.344 1.6,-3.573 4.8,-4.985 7.6,-3.242" /></g><g
         transform="scale(1.20034)"
         id="g556"><path
           id="path558"
           style="fill:#ffffff;fill-opacity:1;fill-rule:nonzero;stroke:none"
           d="m 16295.4,646.651 v 0 c 3.4,2.083 4.6,7.748 2.7,12.08 -9.3,20.245 -38,69.567 -96.2,59.234 -3.5,-0.582 -5.7,-4.998 -5.1,-9.665 v -0.166 c 0.6,-4.416 3.6,-7.332 6.9,-6.749 52.1,8.998 76.6,-34.489 84.1,-51.483 1.6,-3.583 4.9,-4.999 7.6,-3.251" /></g><path
         id="path560"
         style="fill:#122f5b;fill-opacity:1;fill-rule:nonzero;stroke:none"
         d="m 8750.9,6304.7 -422.26,385.2 c -13.05,11.9 -13.98,32.1 -2.07,45.1 11.9,13.1 32.13,14 45.17,2.1 l 422.27,-385.2 c 13.05,-11.9 13.97,-32.1 2.07,-45.1 -11.9,-13.1 -32.13,-14 -45.18,-2.1" /><path
         id="path562"
         style="fill:#55769f;fill-opacity:1;fill-rule:nonzero;stroke:none"
         d="m 8500.55,6882.6 -135.43,-117.2 c -16.7,-14.5 -21.05,-37.5 -9.15,-48.3 l 413.75,-377.4 c 10.74,-9.8 27.48,-12.8 44.63,-5.4 17.58,7.7 36.51,26.1 41.87,69.2 10.61,85.3 -97.08,207.4 -117.48,305.9 -0.42,2 -1.43,3.8 -2.94,5.2 l -190.39,173.6 c -10.77,9.9 -29.76,7.5 -44.86,-5.6" /><path
         id="path564"
         style="fill:#ffffff;fill-opacity:1;fill-rule:nonzero;stroke:none"
         d="m 8639.26,6662.8 v 0 c -1.31,4.6 2.2,10.6 7.42,12.9 24.55,10.6 89.93,31.2 133.38,-24.9 2.51,-3.2 0.92,-9 -3.32,-12.7 l -0.14,-0.1 c -4.1,-3.5 -9.15,-3.6 -11.6,-0.5 -39.09,50.1 -95.92,31.2 -116.26,22.1 -4.34,-2 -8.38,-0.6 -9.48,3.2" /><path
         id="path566"
         style="fill:#ffffff;fill-opacity:1;fill-rule:nonzero;stroke:none"
         d="m 8666.8,6606.7 v 0 c -1.31,4.6 2.19,10.6 7.42,12.9 24.54,10.6 89.93,31.2 133.38,-24.9 2.51,-3.2 0.92,-9.1 -3.32,-12.7 l -0.14,-0.1 c -4.1,-3.5 -9.15,-3.6 -11.6,-0.5 -39.09,50.1 -95.92,31.2 -116.26,22.1 -4.34,-2 -8.38,-0.6 -9.48,3.2" /><path
         id="path568"
         style="fill:#ffffff;fill-opacity:1;fill-rule:nonzero;stroke:none"
         d="m 8692.37,6554.5 v 0 c -1.31,4.5 2.19,10.6 7.42,12.8 24.54,10.6 89.92,31.3 133.37,-24.8 2.51,-3.3 0.92,-9.1 -3.32,-12.7 l -0.13,-0.1 c -4.1,-3.5 -9.16,-3.7 -11.6,-0.6 -39.09,50.2 -95.93,31.2 -116.26,22.1 -4.34,-1.9 -8.39,-0.5 -9.48,3.3" /></g></g></svg>