<?xml version="1.0" encoding="utf-8"?>
<!-- Generator: Adobe Illustrator 24.1.2, SVG Export Plug-In . SVG Version: 6.00 Build 0)  -->
<svg version="1.1" id="Layer_1" xmlns="http://www.w3.org/2000/svg" xmlns:xlink="http://www.w3.org/1999/xlink" x="0px" y="0px"
	 viewBox="0 0 566.9 566.9" style="enable-background:new 0 0 566.9 566.9;" xml:space="preserve">
<g>
	<rect style="fill:#113559;" width="283.5" height="283.5"/>
	<rect x="283.5" style="fill:#21A5DE;" width="283.5" height="283.5"/>
	<rect y="283.5" style="fill:#ED1845;" width="283.5" height="283.5"/>
	<rect x="283.5" y="283.5" style="fill:#FFFFFF;" width="283.5" height="283.5"/>
</g>
<g id="Administrator-Smartphone-Cloud-Office-Internet">
	<rect x="56.7" y="490.4" style="fill:#FFFFFF;" width="166" height="5.9"/>
	<path style="fill:#FFFFFF;" d="M116,484.5h47.4c1.6,0,3-1.3,3-3v-3H113v3C113,483.2,114.4,484.5,116,484.5z"/>
	<circle style="fill:#FFFFFF;" cx="139.7" cy="457.8" r="3"/>
	<rect x="65.6" y="502.3" style="fill:#FFFFFF;" width="148.2" height="5.9"/>
	<path style="fill:#FFFFFF;" d="M171.8,484.5h6.5v-21.1c0-2.9-0.9-5.8-2.5-8.2l-3.4,20.7v5.7C172.3,482.5,172.1,483.5,171.8,484.5z"
		/>
	<path style="fill:#FFFFFF;" d="M163.4,404.4v5.9c1.6,0,3-1.3,3-3S165.1,404.4,163.4,404.4z"/>
	<path style="fill:#FFFFFF;" d="M171.2,446.4c0.3-1.6-0.8-3.2-2.4-3.4c-0.1,0-0.3,0-0.5,0h-57.2c-1.6,0-3,1.3-3,3c0,0.1,0,0.3,0,0.5
		l4.4,26.2h54.3L171.2,446.4z M139.7,466.7c-4.9,0-8.9-4-8.9-8.9s4-8.9,8.9-8.9c4.9,0,8.9,4,8.9,8.9S144.6,466.7,139.7,466.7z"/>
	<path style="fill:#FFFFFF;" d="M154.5,374.8h-42.7l3.8,7.6c0.4,0.9,0.4,1.8,0,2.7l-2,4l6.5,6.5h11.6c4.5,0,8.9-1.5,12.5-4.2
		l5.5-4.2c0.5-0.4,1.1-0.6,1.8-0.6c1.3,0,2.4,0.8,2.8,2l1.6,4.9c0.4,1.2,1.5,2,2.8,2h0.4l4.2-4.2v-7.7
		C163.4,378.8,159.5,374.8,154.5,374.8z"/>
	<path style="fill:#FFFFFF;" d="M116,404.4c-1.6,0-3,1.3-3,3s1.3,3,3,3V404.4z"/>
	<path style="fill:#FFFFFF;" d="M101.2,463.4v21.1h6.5c-0.3-1-0.5-2-0.6-3v-5.7l-3.4-20.7C102,457.6,101.2,460.4,101.2,463.4z"/>
	<path style="fill:#FFFFFF;" d="M150.4,395.4l-0.3-0.9l-2.3,1.7c-4.6,3.4-10.2,5.3-16,5.3h-9.9v8.9c0,0.6,0,1.1,0.1,1.7
		c0.4,4.1,2.2,7.9,5.1,10.9c1.4,1.4,3.1,2.6,4.9,3.5c8.9,4.2,19.5,0.4,23.7-8.5c0.9-1.8,1.4-3.8,1.6-5.8c0.1-0.6,0.1-1.2,0.1-1.8v-9
		C154.2,400.9,151.5,398.5,150.4,395.4z M133.8,410.4h-5.9v-5.9h5.9V410.4z M151.6,410.4h-5.9v-5.9h5.9V410.4z"/>
	<path style="fill:#FFFFFF;" d="M133.8,433.3v3.7h11.9v-3.7C141.8,434.4,137.7,434.4,133.8,433.3z"/>
	<path style="fill:#FFFFFF;" d="M216.8,360h-4.6c-1.6,0-3-1.3-3-3c0-0.5,0.1-1,0.4-1.5c0.8-1.3,1.2-2.9,1.3-4.4c0-4.9-4-8.9-8.9-8.9
		c-4.3,0-8,3.1-8.7,7.4c-0.3,1.6-1.8,2.7-3.4,2.4c-0.4-0.1-0.7-0.2-1.1-0.4c-1.4-0.9-3.3-0.4-4.1,1.1c-0.3,0.4-0.4,0.9-0.4,1.4
		c0,0.5,0.1,1,0.4,1.5c0.8,1.4,0.3,3.2-1.1,4c-0.4,0.3-1,0.4-1.5,0.4h-0.9c-3.3,0-5.9,2.7-5.9,5.9s2.7,5.9,5.9,5.9h35.6
		c3.3,0,5.9-2.7,5.9-5.9S220.1,360,216.8,360z"/>
	<path style="fill:#FFFFFF;" d="M92.3,351.1c0-4.9-4-8.9-8.9-8.9H65.6c-4.9,0-8.9,4-8.9,8.9v35.6c0,4.9,4,8.9,8.9,8.9h17.8
		c4.9,0,8.9-4,8.9-8.9V351.1z M68.6,348.1h11.9v5.9H68.6V348.1z M77.4,389.6h-5.9v-5.9h5.9V389.6z M83.4,377.8H65.6v-5.9h17.8V377.8
		z M83.4,365.9H65.6V360h17.8V365.9z"/>
	<rect x="204.9" y="440" style="fill:#FFFFFF;" width="5.9" height="5.9"/>
	<path style="fill:#FFFFFF;" d="M218.4,432.5c-5.8-5.8-15.2-5.8-21,0l4.2,4.2c3.5-3.5,9.1-3.5,12.6,0L218.4,432.5z"/>
	<path style="fill:#FFFFFF;" d="M226.8,424.1c-10.4-10.4-27.3-10.4-37.7,0l0,0l4.2,4.2c8.1-8.1,21.2-8.1,29.4,0l0,0L226.8,424.1z"/>
	<path style="fill:#FFFFFF;" d="M190.1,460.8v5.9h8.9c0.8,0,1.6-0.3,2.1-0.9l8.9-8.9l-4.2-4.2l-8,8H190.1z"/>
	<path style="fill:#FFFFFF;" d="M71.5,407.4v11.9c0,0.8,0.3,1.6,0.9,2.1l20.8,20.8l4.2-4.2L77.4,418v-10.6H71.5z"/>
	<path style="fill:#FFFFFF;" d="M202,398.5v-14.8H196v11.9h-17.8v5.9H199C200.6,401.5,202,400.1,202,398.5z"/>
</g>
<g id="Administrator-Smartphone-Cloud-Office-Internet_1_">
	<rect x="56.7" y="207" style="fill:#FFFFFF;" width="166" height="5.9"/>
	<path style="fill:#FFFFFF;" d="M116,201h47.4c1.6,0,3-1.3,3-3v-3H113v3C113,199.7,114.4,201,116,201z"/>
	<circle style="fill:#FFFFFF;" cx="139.7" cy="174.3" r="3"/>
	<rect x="65.6" y="218.8" style="fill:#FFFFFF;" width="148.2" height="5.9"/>
	<path style="fill:#FFFFFF;" d="M171.8,201h6.5v-21.1c0-2.9-0.9-5.8-2.5-8.2l-3.4,20.7v5.7C172.3,199.1,172.1,200.1,171.8,201z"/>
	<path style="fill:#FFFFFF;" d="M163.4,121v5.9c1.6,0,3-1.3,3-3S165.1,121,163.4,121z"/>
	<path style="fill:#FFFFFF;" d="M171.2,163c0.3-1.6-0.8-3.2-2.4-3.4c-0.1,0-0.3,0-0.5,0h-57.2c-1.6,0-3,1.3-3,3c0,0.1,0,0.3,0,0.5
		l4.4,26.2h54.3L171.2,163z M139.7,183.2c-4.9,0-8.9-4-8.9-8.9s4-8.9,8.9-8.9c4.9,0,8.9,4,8.9,8.9S144.6,183.2,139.7,183.2z"/>
	<path style="fill:#FFFFFF;" d="M154.5,91.3h-42.7l3.8,7.6c0.4,0.9,0.4,1.8,0,2.7l-2,4l6.5,6.5h11.6c4.5,0,8.9-1.5,12.5-4.2l5.5-4.2
		c0.5-0.4,1.1-0.6,1.8-0.6c1.3,0,2.4,0.8,2.8,2l1.6,4.9c0.4,1.2,1.5,2,2.8,2h0.4l4.2-4.2v-7.7C163.4,95.3,159.5,91.3,154.5,91.3z"/>
	<path style="fill:#FFFFFF;" d="M116,121c-1.6,0-3,1.3-3,3s1.3,3,3,3V121z"/>
	<path style="fill:#FFFFFF;" d="M101.2,179.9V201h6.5c-0.3-1-0.5-2-0.6-3v-5.7l-3.4-20.7C102,174.1,101.2,177,101.2,179.9z"/>
	<path style="fill:#FFFFFF;" d="M150.4,111.9l-0.3-0.9l-2.3,1.7c-4.6,3.4-10.2,5.3-16,5.3h-9.9v8.9c0,0.6,0,1.1,0.1,1.7
		c0.4,4.1,2.2,7.9,5.1,10.9c1.4,1.4,3.1,2.6,4.9,3.5c8.9,4.2,19.5,0.4,23.7-8.5c0.9-1.8,1.4-3.8,1.6-5.8c0.1-0.6,0.1-1.2,0.1-1.8v-9
		C154.2,117.4,151.5,115.1,150.4,111.9z M133.8,126.9h-5.9V121h5.9V126.9z M151.6,126.9h-5.9V121h5.9V126.9z"/>
	<path style="fill:#FFFFFF;" d="M133.8,149.8v3.7h11.9v-3.7C141.8,150.9,137.7,150.9,133.8,149.8z"/>
	<path style="fill:#FFFFFF;" d="M216.8,76.5h-4.6c-1.6,0-3-1.3-3-3c0-0.5,0.1-1,0.4-1.5c0.8-1.3,1.2-2.9,1.3-4.4
		c0-4.9-4-8.9-8.9-8.9c-4.3,0-8,3.1-8.7,7.4c-0.3,1.6-1.8,2.7-3.4,2.4c-0.4-0.1-0.7-0.2-1.1-0.4c-1.4-0.9-3.3-0.4-4.1,1.1
		c-0.3,0.4-0.4,0.9-0.4,1.4c0,0.5,0.1,1,0.4,1.5c0.8,1.4,0.3,3.2-1.1,4c-0.4,0.3-1,0.4-1.5,0.4h-0.9c-3.3,0-5.9,2.7-5.9,5.9
		c0,3.3,2.7,5.9,5.9,5.9h35.6c3.3,0,5.9-2.7,5.9-5.9C222.7,79.2,220.1,76.5,216.8,76.5z"/>
	<path style="fill:#FFFFFF;" d="M92.3,67.6c0-4.9-4-8.9-8.9-8.9H65.6c-4.9,0-8.9,4-8.9,8.9v35.6c0,4.9,4,8.9,8.9,8.9h17.8
		c4.9,0,8.9-4,8.9-8.9V67.6z M68.6,64.6h11.9v5.9H68.6V64.6z M77.4,106.2h-5.9v-5.9h5.9V106.2z M83.4,94.3H65.6v-5.9h17.8V94.3z
		 M83.4,82.4H65.6v-5.9h17.8V82.4z"/>
	<rect x="204.9" y="156.6" style="fill:#FFFFFF;" width="5.9" height="5.9"/>
	<path style="fill:#FFFFFF;" d="M218.4,149c-5.8-5.8-15.2-5.8-21,0l4.2,4.2c3.5-3.5,9.1-3.5,12.6,0L218.4,149z"/>
	<path style="fill:#FFFFFF;" d="M226.8,140.7c-10.4-10.4-27.3-10.4-37.7,0l0,0l4.2,4.2c8.1-8.1,21.2-8.1,29.4,0l0,0L226.8,140.7z"/>
	<path style="fill:#FFFFFF;" d="M190.1,177.3v5.9h8.9c0.8,0,1.6-0.3,2.1-0.9l8.9-8.9l-4.2-4.2l-8,8H190.1z"/>
	<path style="fill:#FFFFFF;" d="M71.5,123.9v11.9c0,0.8,0.3,1.6,0.9,2.1l20.8,20.8l4.2-4.2l-19.9-19.9v-10.6H71.5z"/>
	<path style="fill:#FFFFFF;" d="M202,115v-14.8H196v11.9h-17.8v5.9H199C200.6,118,202,116.7,202,115z"/>
</g>
<g id="Administrator-Smartphone-Cloud-Office-Internet_2_">
	<rect x="340.2" y="207" style="fill:#FFFFFF;" width="166" height="5.9"/>
	<path style="fill:#FFFFFF;" d="M399.5,201h47.4c1.6,0,3-1.3,3-3v-3h-53.4v3C396.5,199.7,397.8,201,399.5,201z"/>
	<circle style="fill:#FFFFFF;" cx="423.2" cy="174.3" r="3"/>
	<rect x="349.1" y="218.8" style="fill:#FFFFFF;" width="148.2" height="5.9"/>
	<path style="fill:#FFFFFF;" d="M455.2,201h6.5v-21.1c0-2.9-0.9-5.8-2.5-8.2l-3.4,20.7v5.7C455.8,199.1,455.6,200.1,455.2,201z"/>
	<path style="fill:#FFFFFF;" d="M446.9,121v5.9c1.6,0,3-1.3,3-3S448.5,121,446.9,121z"/>
	<path style="fill:#FFFFFF;" d="M454.7,163c0.3-1.6-0.8-3.2-2.4-3.4c-0.1,0-0.3,0-0.5,0h-57.1c-1.6,0-3,1.3-3,3c0,0.1,0,0.3,0,0.5
		l4.4,26.2h54.3L454.7,163z M423.2,183.2c-4.9,0-8.9-4-8.9-8.9s4-8.9,8.9-8.9c4.9,0,8.9,4,8.9,8.9S428.1,183.2,423.2,183.2z"/>
	<path style="fill:#FFFFFF;" d="M438,91.3h-42.7l3.8,7.6c0.4,0.9,0.4,1.8,0,2.7l-2,4l6.5,6.5h11.6c4.5,0,8.9-1.5,12.5-4.2l5.5-4.2
		c0.5-0.4,1.1-0.6,1.8-0.6c1.3,0,2.4,0.8,2.8,2l1.6,4.9c0.4,1.2,1.5,2,2.8,2h0.4l4.2-4.2v-7.7C446.9,95.3,442.9,91.3,438,91.3z"/>
	<path style="fill:#FFFFFF;" d="M399.5,121c-1.6,0-3,1.3-3,3s1.3,3,3,3V121z"/>
	<path style="fill:#FFFFFF;" d="M384.6,179.9V201h6.5c-0.3-1-0.5-2-0.6-3v-5.7l-3.4-20.7C385.5,174.1,384.6,177,384.6,179.9z"/>
	<path style="fill:#FFFFFF;" d="M433.9,111.9l-0.3-0.9l-2.3,1.7c-4.6,3.4-10.2,5.3-16,5.3h-9.9v8.9c0,0.6,0,1.1,0.1,1.7
		c0.4,4.1,2.2,7.9,5.1,10.9c1.4,1.4,3.1,2.6,4.9,3.5c8.9,4.2,19.5,0.4,23.7-8.5c0.9-1.8,1.4-3.8,1.6-5.8c0.1-0.6,0.1-1.2,0.1-1.8v-9
		C437.7,117.4,434.9,115.1,433.9,111.9z M417.2,126.9h-5.9V121h5.9V126.9z M435,126.9h-5.9V121h5.9V126.9z"/>
	<path style="fill:#FFFFFF;" d="M417.2,149.8v3.7h11.9v-3.7C425.2,150.9,421.1,150.9,417.2,149.8z"/>
	<path style="fill:#FFFFFF;" d="M500.3,76.5h-4.6c-1.6,0-3-1.3-3-3c0-0.5,0.1-1,0.4-1.5c0.8-1.3,1.2-2.9,1.3-4.4
		c0-4.9-4-8.9-8.9-8.9c-4.3,0-8,3.1-8.7,7.4c-0.3,1.6-1.8,2.7-3.4,2.4c-0.4-0.1-0.7-0.2-1.1-0.4c-1.4-0.9-3.3-0.4-4.1,1.1
		c-0.3,0.4-0.4,0.9-0.4,1.4c0,0.5,0.1,1,0.4,1.5c0.8,1.4,0.3,3.2-1.1,4c-0.4,0.3-1,0.4-1.5,0.4h-0.9c-3.3,0-5.9,2.7-5.9,5.9
		c0,3.3,2.7,5.9,5.9,5.9h35.6c3.3,0,5.9-2.7,5.9-5.9C506.2,79.2,503.5,76.5,500.3,76.5z"/>
	<path style="fill:#FFFFFF;" d="M375.7,67.6c0-4.9-4-8.9-8.9-8.9h-17.8c-4.9,0-8.9,4-8.9,8.9v35.6c0,4.9,4,8.9,8.9,8.9h17.8
		c4.9,0,8.9-4,8.9-8.9V67.6z M352,64.6h11.9v5.9H352V64.6z M360.9,106.2H355v-5.9h5.9V106.2z M366.8,94.3h-17.8v-5.9h17.8V94.3z
		 M366.8,82.4h-17.8v-5.9h17.8V82.4z"/>
	<rect x="488.4" y="156.6" style="fill:#FFFFFF;" width="5.9" height="5.9"/>
	<path style="fill:#FFFFFF;" d="M501.9,149c-5.8-5.8-15.2-5.8-21,0l4.2,4.2c3.5-3.5,9.1-3.5,12.6,0L501.9,149z"/>
	<path style="fill:#FFFFFF;" d="M510.2,140.7c-10.4-10.4-27.3-10.4-37.7,0l0,0l4.2,4.2c8.1-8.1,21.2-8.1,29.4,0l0,0L510.2,140.7z"/>
	<path style="fill:#FFFFFF;" d="M473.6,177.3v5.9h8.9c0.8,0,1.6-0.3,2.1-0.9l8.9-8.9l-4.2-4.2l-8,8H473.6z"/>
	<path style="fill:#FFFFFF;" d="M355,123.9v11.9c0,0.8,0.3,1.6,0.9,2.1l20.8,20.8l4.2-4.2l-19.9-19.9v-10.6H355z"/>
	<path style="fill:#FFFFFF;" d="M485.4,115v-14.8h-5.9v11.9h-17.8v5.9h20.8C484.1,118,485.4,116.7,485.4,115z"/>
</g>
<g id="Administrator-Smartphone-Cloud-Office-Internet_3_">
	<rect x="340.2" y="490.4" style="fill:#113559;" width="166" height="5.9"/>
	<path style="fill:#113559;" d="M399.5,484.5h47.4c1.6,0,3-1.3,3-3v-3h-53.4v3C396.5,483.2,397.8,484.5,399.5,484.5z"/>
	<circle style="fill:#113559;" cx="423.2" cy="457.8" r="3"/>
	<rect x="349.1" y="502.3" style="fill:#113559;" width="148.2" height="5.9"/>
	<path style="fill:#113559;" d="M455.2,484.5h6.5v-21.1c0-2.9-0.9-5.8-2.5-8.2l-3.4,20.7v5.7C455.8,482.5,455.6,483.5,455.2,484.5z"
		/>
	<path style="fill:#113559;" d="M446.9,404.4v5.9c1.6,0,3-1.3,3-3S448.5,404.4,446.9,404.4z"/>
	<path style="fill:#113559;" d="M454.7,446.4c0.3-1.6-0.8-3.2-2.4-3.4c-0.1,0-0.3,0-0.5,0h-57.1c-1.6,0-3,1.3-3,3c0,0.1,0,0.3,0,0.5
		l4.4,26.2h54.3L454.7,446.4z M423.2,466.7c-4.9,0-8.9-4-8.9-8.9s4-8.9,8.9-8.9c4.9,0,8.9,4,8.9,8.9S428.1,466.7,423.2,466.7z"/>
	<path style="fill:#113559;" d="M438,374.8h-42.7l3.8,7.6c0.4,0.9,0.4,1.8,0,2.7l-2,4l6.5,6.5h11.6c4.5,0,8.9-1.5,12.5-4.2l5.5-4.2
		c0.5-0.4,1.1-0.6,1.8-0.6c1.3,0,2.4,0.8,2.8,2l1.6,4.9c0.4,1.2,1.5,2,2.8,2h0.4l4.2-4.2v-7.7C446.9,378.8,442.9,374.8,438,374.8z"
		/>
	<path style="fill:#113559;" d="M399.5,404.4c-1.6,0-3,1.3-3,3s1.3,3,3,3V404.4z"/>
	<path style="fill:#113559;" d="M384.6,463.4v21.1h6.5c-0.3-1-0.5-2-0.6-3v-5.7l-3.4-20.7C385.5,457.6,384.6,460.4,384.6,463.4z"/>
	<path style="fill:#113559;" d="M433.9,395.4l-0.3-0.9l-2.3,1.7c-4.6,3.4-10.2,5.3-16,5.3h-9.9v8.9c0,0.6,0,1.1,0.1,1.7
		c0.4,4.1,2.2,7.9,5.1,10.9c1.4,1.4,3.1,2.6,4.9,3.5c8.9,4.2,19.5,0.4,23.7-8.5c0.9-1.8,1.4-3.8,1.6-5.8c0.1-0.6,0.1-1.2,0.1-1.8v-9
		C437.7,400.9,434.9,398.5,433.9,395.4z M417.2,410.4h-5.9v-5.9h5.9V410.4z M435,410.4h-5.9v-5.9h5.9V410.4z"/>
	<path style="fill:#113559;" d="M417.2,433.3v3.7h11.9v-3.7C425.2,434.4,421.1,434.4,417.2,433.3z"/>
	<path style="fill:#113559;" d="M500.3,360h-4.6c-1.6,0-3-1.3-3-3c0-0.5,0.1-1,0.4-1.5c0.8-1.3,1.2-2.9,1.3-4.4c0-4.9-4-8.9-8.9-8.9
		c-4.3,0-8,3.1-8.7,7.4c-0.3,1.6-1.8,2.7-3.4,2.4c-0.4-0.1-0.7-0.2-1.1-0.4c-1.4-0.9-3.3-0.4-4.1,1.1c-0.3,0.4-0.4,0.9-0.4,1.4
		c0,0.5,0.1,1,0.4,1.5c0.8,1.4,0.3,3.2-1.1,4c-0.4,0.3-1,0.4-1.5,0.4h-0.9c-3.3,0-5.9,2.7-5.9,5.9s2.7,5.9,5.9,5.9h35.6
		c3.3,0,5.9-2.7,5.9-5.9S503.5,360,500.3,360z"/>
	<path style="fill:#113559;" d="M375.7,351.1c0-4.9-4-8.9-8.9-8.9h-17.8c-4.9,0-8.9,4-8.9,8.9v35.6c0,4.9,4,8.9,8.9,8.9h17.8
		c4.9,0,8.9-4,8.9-8.9V351.1z M352,348.1h11.9v5.9H352V348.1z M360.9,389.6H355v-5.9h5.9V389.6z M366.8,377.8h-17.8v-5.9h17.8V377.8
		z M366.8,365.9h-17.8V360h17.8V365.9z"/>
	<rect x="488.4" y="440" style="fill:#113559;" width="5.9" height="5.9"/>
	<path style="fill:#113559;" d="M501.9,432.5c-5.8-5.8-15.2-5.8-21,0l4.2,4.2c3.5-3.5,9.1-3.5,12.6,0L501.9,432.5z"/>
	<path style="fill:#113559;" d="M510.2,424.1c-10.4-10.4-27.3-10.4-37.7,0l0,0l4.2,4.2c8.1-8.1,21.2-8.1,29.4,0l0,0L510.2,424.1z"/>
	<path style="fill:#113559;" d="M473.6,460.8v5.9h8.9c0.8,0,1.6-0.3,2.1-0.9l8.9-8.9l-4.2-4.2l-8,8H473.6z"/>
	<path style="fill:#113559;" d="M355,407.4v11.9c0,0.8,0.3,1.6,0.9,2.1l20.8,20.8l4.2-4.2L360.9,418v-10.6H355z"/>
	<path style="fill:#113559;" d="M485.4,398.5v-14.8h-5.9v11.9h-17.8v5.9h20.8C484.1,401.5,485.4,400.1,485.4,398.5z"/>
</g>
</svg>
