<?xml version="1.0" encoding="utf-8"?>
<!-- Generator: Adobe Illustrator 24.1.2, SVG Export Plug-In . SVG Version: 6.00 Build 0)  -->
<svg version="1.1" id="Layer_1" xmlns="http://www.w3.org/2000/svg" xmlns:xlink="http://www.w3.org/1999/xlink" x="0px" y="0px"
	 viewBox="0 0 566.9 566.9" style="enable-background:new 0 0 566.9 566.9;" xml:space="preserve">
<g>
	<rect style="fill:#113559;" width="283.5" height="283.5"/>
	<rect x="283.5" style="fill:#21A5DE;" width="283.5" height="283.5"/>
	<rect y="283.5" style="fill:#ED1845;" width="283.5" height="283.5"/>
	<rect x="283.5" y="283.5" style="fill:#FFFFFF;" width="283.5" height="283.5"/>
</g>
<g id="solid">
	<path style="fill:#FFFFFF;" d="M197.7,422.3c-1.6,0-2.9,1.3-2.9,2.9v8.8c0,1.6,1.3,2.9,2.9,2.9c1.6,0,2.9-1.3,2.9-2.9v-8.8
		C200.6,423.6,199.3,422.3,197.7,422.3z"/>
	<path style="fill:#FFFFFF;" d="M197.7,442.8c-1.6,0-2.9,1.3-2.9,2.9v2.9c0,1.6,1.3,2.9,2.9,2.9c1.6,0,2.9-1.3,2.9-2.9v-2.9
		C200.6,444.1,199.3,442.8,197.7,442.8z"/>
	<path style="fill:#FFFFFF;" d="M84.7,393c2.4,0,4.4-2,4.4-4.4v-11.7c0-2.4-2-4.4-4.4-4.4s-4.4,2-4.4,4.4v11.7
		C80.3,391,82.3,393,84.7,393z"/>
	<path style="fill:#FFFFFF;" d="M128.7,401.8c2.4,0,4.4-2,4.4-4.4v-11.7c0-2.4-2-4.4-4.4-4.4c-2.4,0-4.4,2-4.4,4.4v11.7
		C124.3,399.8,126.3,401.8,128.7,401.8z"/>
	<path style="fill:#FFFFFF;" d="M114,398.8c2.4,0,4.4-2,4.4-4.4v-11.7c0-2.4-2-4.4-4.4-4.4s-4.4,2-4.4,4.4v11.7
		C109.6,396.8,111.6,398.8,114,398.8z"/>
	<path style="fill:#FFFFFF;" d="M168.1,366.8l17.5,17.1l12.6-12.1c-4.6-0.1-9.1-1.1-13.4-2.8C179.5,366.8,173.7,366.1,168.1,366.8z"
		/>
	<path style="fill:#FFFFFF;" d="M99.4,395.9c2.4,0,4.4-2,4.4-4.4v-11.7c0-2.4-2-4.4-4.4-4.4s-4.4,2-4.4,4.4v11.7
		C95,393.9,97,395.9,99.4,395.9z"/>
	<path style="fill:#FFFFFF;" d="M203.9,341.2c-1.5,0.6-3,1.5-4.1,2.7l-11.6,11.6c-1.1,1.1-3,1.1-4.1,0l0,0l-11.6-11.6
		c-1.2-1.2-2.6-2.1-4.1-2.7c-10.2-3.9-19.8,3.6-19.8,13.3c0,3.8,1.5,7.4,4.2,10.1l30.5,30.7v46.1c0,10.5-8.5,19.1-19.1,19.1
		c-13.8,0-24.9,11.2-24.9,24.9c0,10.5-8.5,19.1-19.1,19.1c-10,0-18.3-7.7-19-17.6h20.5v-35.2c0-0.6,0.2-1.2,0.6-1.8l1.5-2
		c4.3-5.8,6.7-12.8,6.7-20.1v-20.2c-4,0.6-8-1.3-10.2-4.7c-4.6,3.3-11,2.2-14.3-2.4c-0.1-0.2-0.3-0.4-0.4-0.6
		c-4.6,3.3-11,2.2-14.3-2.4c-0.1-0.2-0.3-0.4-0.4-0.6c-3,2.2-7,2.5-10.3,0.9v10.9l5.7,2.9c1.1,0.6,2.2,1.2,3.3,1.9h26.2
		c1.6,0,2.9,1.3,2.9,2.9c0,1.6-1.3,2.9-2.9,2.9H96c5,5.8,7.8,13.3,7.8,21v5.4c0,1.6-1.3,2.9-2.9,2.9c-1.6,0-2.9-1.3-2.9-2.9v-5.4
		c0-9.9-5.6-19.1-14.5-23.5l-7.3-3.7c-1-0.5-1.6-1.5-1.6-2.6v-27.4c0-2.7-2.2-4.9-4.9-4.9c-2.5,0-4.5,1.8-4.9,4.2l-2,13.8
		c0,0.1,0,0.2-0.1,0.3l-1.4,5.8c-0.9,3.7-1.4,7.6-1.4,11.4v2.4c0,12.5,5,24.5,13.8,33.3c0.6,0.6,0.8,1.3,0.8,2.1v35.2H95
		c0.8,13.8,12.7,24.2,26.4,23.4c13.1-0.8,23.4-11.7,23.4-24.8c0-10.5,8.5-19.1,19.1-19.1c13.8,0,24.9-11.2,24.9-24.9v-46.3
		l30.7-30.5c2.7-2.7,4.2-6.3,4.2-10.1C223.7,344.8,214,337.3,203.9,341.2z M89.1,469.2v5.9H95v5.9h-8.8c-1.6,0-2.9-1.3-2.9-2.9
		v-11.7c0-1.6,1.3-2.9,2.9-2.9h23.5c1.6,0,2.9,1.3,2.9,2.9V478c0,1.6-1.3,2.9-2.9,2.9h-8.8v-5.9h5.9v-5.9H89.1z M195.2,355.7
		l2.9-2.9c1.1-1.1,3-1.1,4.1,0c1.1,1.1,1.1,3,0,4.1l-2.9,2.9c-1.1,1.1-3,1.1-4.1,0C194.1,358.7,194.1,356.8,195.2,355.7z
		 M208.1,370.4l-20.5,19.7c-1.1,1.1-2.9,1.1-4.1,0l-23.9-23.3l0,0c-1.1-2,0-4,1.7-4.5c8.5-2.4,17.5-2,25.7,1.3
		c5.9,2.3,12.4,3,18.6,1.9c1.6-0.3,3.1,0.8,3.4,2.3C209.2,368.7,208.8,369.7,208.1,370.4L208.1,370.4z M211.1,348.1l-2.9,2.9
		c-1.1,1.1-3,1.1-4.1,0c-1.1-1.1-1.1-3,0-4.1l0,0l2.9-2.9c1.1-1.1,3-1.1,4.1,0C212.3,345.1,212.3,346.9,211.1,348.1z"/>
</g>
<g id="solid_1_">
	<path style="fill:#FFFFFF;" d="M197.7,138.8c-1.6,0-2.9,1.3-2.9,2.9v8.8c0,1.6,1.3,2.9,2.9,2.9c1.6,0,2.9-1.3,2.9-2.9v-8.8
		C200.6,140.1,199.3,138.8,197.7,138.8z"/>
	<path style="fill:#FFFFFF;" d="M197.7,159.4c-1.6,0-2.9,1.3-2.9,2.9v2.9c0,1.6,1.3,2.9,2.9,2.9c1.6,0,2.9-1.3,2.9-2.9v-2.9
		C200.6,160.7,199.3,159.4,197.7,159.4z"/>
	<path style="fill:#FFFFFF;" d="M84.7,109.5c2.4,0,4.4-2,4.4-4.4V93.4c0-2.4-2-4.4-4.4-4.4s-4.4,2-4.4,4.4v11.7
		C80.3,107.5,82.3,109.5,84.7,109.5z"/>
	<path style="fill:#FFFFFF;" d="M128.7,118.3c2.4,0,4.4-2,4.4-4.4v-11.7c0-2.4-2-4.4-4.4-4.4c-2.4,0-4.4,2-4.4,4.4v11.7
		C124.3,116.3,126.3,118.3,128.7,118.3z"/>
	<path style="fill:#FFFFFF;" d="M114,115.4c2.4,0,4.4-2,4.4-4.4V99.2c0-2.4-2-4.4-4.4-4.4s-4.4,2-4.4,4.4V111
		C109.6,113.4,111.6,115.4,114,115.4z"/>
	<path style="fill:#FFFFFF;" d="M168.1,83.3l17.5,17.1l12.6-12.1c-4.6-0.1-9.1-1.1-13.4-2.8C179.5,83.4,173.7,82.6,168.1,83.3z"/>
	<path style="fill:#FFFFFF;" d="M99.4,112.4c2.4,0,4.4-2,4.4-4.4V96.3c0-2.4-2-4.4-4.4-4.4s-4.4,2-4.4,4.4V108
		C95,110.4,97,112.4,99.4,112.4z"/>
	<path style="fill:#FFFFFF;" d="M203.9,57.7c-1.5,0.6-3,1.5-4.1,2.7l-11.6,11.6c-1.1,1.1-3,1.1-4.1,0l0,0l-11.6-11.6
		c-1.2-1.2-2.6-2.1-4.1-2.7c-10.2-3.9-19.8,3.6-19.8,13.3c0,3.8,1.5,7.4,4.2,10.1l30.5,30.7v46.1c0,10.5-8.5,19.1-19.1,19.1
		c-13.8,0-24.9,11.2-24.9,24.9c0,10.5-8.5,19.1-19.1,19.1c-10,0-18.3-7.7-19-17.6h20.5v-35.2c0-0.6,0.2-1.2,0.6-1.8l1.5-2
		c4.3-5.8,6.7-12.8,6.7-20.1v-20.2c-4,0.6-8-1.3-10.2-4.7c-4.6,3.3-11,2.2-14.3-2.4c-0.1-0.2-0.3-0.4-0.4-0.6
		c-4.6,3.3-11,2.2-14.3-2.4c-0.1-0.2-0.3-0.4-0.4-0.6c-3,2.2-7,2.5-10.3,0.9v10.9l5.7,2.9c1.1,0.6,2.2,1.2,3.3,1.9h26.2
		c1.6,0,2.9,1.3,2.9,2.9c0,1.6-1.3,2.9-2.9,2.9H96c5,5.8,7.8,13.3,7.8,21v5.4c0,1.6-1.3,2.9-2.9,2.9c-1.6,0-2.9-1.3-2.9-2.9v-5.4
		c0-9.9-5.6-19.1-14.5-23.5l-7.3-3.7c-1-0.5-1.6-1.5-1.6-2.6V99.7c0-2.7-2.2-4.9-4.9-4.9c-2.5,0-4.5,1.8-4.9,4.2l-2,13.8
		c0,0.1,0,0.2-0.1,0.3l-1.4,5.8c-0.9,3.7-1.4,7.6-1.4,11.4v2.4c0,12.5,5,24.5,13.8,33.3c0.6,0.6,0.8,1.3,0.8,2.1v35.2H95
		c0.8,13.8,12.7,24.2,26.4,23.4c13.1-0.8,23.4-11.7,23.4-24.8c0-10.5,8.5-19.1,19.1-19.1c13.8,0,24.9-11.2,24.9-24.9v-46.3
		l30.7-30.5c2.7-2.7,4.2-6.3,4.2-10.1C223.7,61.3,214,53.9,203.9,57.7z M89.1,185.8v5.9H95v5.9h-8.8c-1.6,0-2.9-1.3-2.9-2.9v-11.7
		c0-1.6,1.3-2.9,2.9-2.9h23.5c1.6,0,2.9,1.3,2.9,2.9v11.7c0,1.6-1.3,2.9-2.9,2.9h-8.8v-5.9h5.9v-5.9H89.1z M195.2,72.2l2.9-2.9
		c1.1-1.1,3-1.1,4.1,0c1.1,1.1,1.1,3,0,4.1l-2.9,2.9c-1.1,1.1-3,1.1-4.1,0C194.1,75.2,194.1,73.4,195.2,72.2z M208.1,86.9
		l-20.5,19.7c-1.1,1.1-2.9,1.1-4.1,0l-23.9-23.3l0,0c-1.1-2,0-4,1.7-4.5c8.5-2.4,17.5-2,25.7,1.3c5.9,2.3,12.4,3,18.6,1.9
		c1.6-0.3,3.1,0.8,3.4,2.3C209.2,85.2,208.8,86.2,208.1,86.9L208.1,86.9z M211.1,64.6l-2.9,2.9c-1.1,1.1-3,1.1-4.1,0s-1.1-3,0-4.1
		l0,0l2.9-2.9c1.1-1.1,3-1.1,4.1,0C212.3,61.6,212.3,63.5,211.1,64.6z"/>
</g>
<g id="solid_2_">
	<path style="fill:#FFFFFF;" d="M481.1,138.8c-1.6,0-2.9,1.3-2.9,2.9v8.8c0,1.6,1.3,2.9,2.9,2.9s2.9-1.3,2.9-2.9v-8.8
		C484.1,140.1,482.7,138.8,481.1,138.8z"/>
	<path style="fill:#FFFFFF;" d="M481.1,159.4c-1.6,0-2.9,1.3-2.9,2.9v2.9c0,1.6,1.3,2.9,2.9,2.9s2.9-1.3,2.9-2.9v-2.9
		C484.1,160.7,482.7,159.4,481.1,159.4z"/>
	<path style="fill:#FFFFFF;" d="M368.2,109.5c2.4,0,4.4-2,4.4-4.4V93.4c0-2.4-2-4.4-4.4-4.4s-4.4,2-4.4,4.4v11.7
		C363.8,107.5,365.8,109.5,368.2,109.5z"/>
	<path style="fill:#FFFFFF;" d="M412.2,118.3c2.4,0,4.4-2,4.4-4.4v-11.7c0-2.4-2-4.4-4.4-4.4s-4.4,2-4.4,4.4v11.7
		C407.8,116.3,409.8,118.3,412.2,118.3z"/>
	<path style="fill:#FFFFFF;" d="M397.5,115.4c2.4,0,4.4-2,4.4-4.4V99.2c0-2.4-2-4.4-4.4-4.4s-4.4,2-4.4,4.4V111
		C393.1,113.4,395.1,115.4,397.5,115.4z"/>
	<path style="fill:#FFFFFF;" d="M451.6,83.3l17.5,17.1l12.6-12.1c-4.6-0.1-9.1-1.1-13.4-2.8C463,83.4,457.2,82.6,451.6,83.3z"/>
	<path style="fill:#FFFFFF;" d="M382.8,112.4c2.4,0,4.4-2,4.4-4.4V96.3c0-2.4-2-4.4-4.4-4.4s-4.4,2-4.4,4.4V108
		C378.4,110.4,380.4,112.4,382.8,112.4z"/>
	<path style="fill:#FFFFFF;" d="M487.3,57.7c-1.5,0.6-3,1.5-4.1,2.7l-11.6,11.6c-1.1,1.1-3,1.1-4.1,0l0,0l-11.6-11.6
		c-1.2-1.2-2.6-2.1-4.1-2.7c-10.2-3.9-19.8,3.6-19.8,13.3c0,3.8,1.5,7.4,4.2,10.1l30.5,30.7v46.1c0,10.5-8.5,19.1-19.1,19.1
		c-13.8,0-24.9,11.2-24.9,24.9c0,10.5-8.5,19.1-19.1,19.1c-10,0-18.3-7.7-19-17.6h20.5v-35.2c0-0.6,0.2-1.2,0.6-1.8l1.5-2
		c4.3-5.8,6.7-12.8,6.7-20.1v-20.2c-4,0.6-8-1.3-10.2-4.7c-4.6,3.3-11,2.2-14.3-2.4c-0.1-0.2-0.3-0.4-0.4-0.6
		c-4.6,3.3-11,2.2-14.3-2.4c-0.1-0.2-0.3-0.4-0.4-0.6c-3,2.2-7,2.5-10.3,0.9v10.9l5.7,2.9c1.1,0.6,2.2,1.2,3.3,1.9H399
		c1.6,0,2.9,1.3,2.9,2.9c0,1.6-1.3,2.9-2.9,2.9h-19.5c5,5.8,7.8,13.3,7.8,21v5.4c0,1.6-1.3,2.9-2.9,2.9c-1.6,0-2.9-1.3-2.9-2.9v-5.4
		c0-9.9-5.6-19.1-14.5-23.5l-7.3-3.7c-1-0.5-1.6-1.5-1.6-2.6V99.7c0-2.7-2.2-4.9-4.9-4.9c-2.5,0-4.5,1.8-4.9,4.2l-2,13.8
		c0,0.1,0,0.2-0.1,0.3l-1.4,5.8c-0.9,3.7-1.4,7.6-1.4,11.4v2.4c0,12.5,5,24.5,13.8,33.3c0.6,0.6,0.8,1.3,0.8,2.1v35.2h20.6
		c0.8,13.8,12.7,24.2,26.4,23.4c13.1-0.8,23.4-11.7,23.4-24.8c0-10.5,8.5-19.1,19.1-19.1c13.8,0,24.9-11.2,24.9-24.9v-46.3
		l30.7-30.5c2.7-2.7,4.2-6.3,4.2-10.1C507.2,61.3,497.5,53.9,487.3,57.7z M372.6,185.8v5.9h5.9v5.9h-8.8c-1.6,0-2.9-1.3-2.9-2.9
		v-11.7c0-1.6,1.3-2.9,2.9-2.9h23.5c1.6,0,2.9,1.3,2.9,2.9v11.7c0,1.6-1.3,2.9-2.9,2.9h-8.8v-5.9h5.9v-5.9H372.6z M478.7,72.2
		l2.9-2.9c1.1-1.1,3-1.1,4.1,0c1.1,1.1,1.1,3,0,4.1l-2.9,2.9c-1.1,1.1-3,1.1-4.1,0C477.5,75.2,477.5,73.4,478.7,72.2z M491.6,86.9
		L471,106.6c-1.1,1.1-2.9,1.1-4.1,0l-23.9-23.3l0,0c-1.1-2,0-4,1.7-4.5c8.5-2.4,17.5-2,25.7,1.3c5.9,2.3,12.4,3,18.6,1.9
		c1.6-0.3,3.1,0.8,3.4,2.3C492.6,85.2,492.3,86.2,491.6,86.9L491.6,86.9z M494.6,64.6l-2.9,2.9c-1.1,1.1-3,1.1-4.1,0
		c-1.1-1.1-1.1-3,0-4.1l0,0l2.9-2.9c1.1-1.1,3-1.1,4.1,0C495.7,61.6,495.7,63.5,494.6,64.6z"/>
</g>
<g id="solid_3_">
	<path style="fill:#113559;" d="M481.1,422.3c-1.6,0-2.9,1.3-2.9,2.9v8.8c0,1.6,1.3,2.9,2.9,2.9s2.9-1.3,2.9-2.9v-8.8
		C484.1,423.6,482.7,422.3,481.1,422.3z"/>
	<path style="fill:#113559;" d="M481.1,442.8c-1.6,0-2.9,1.3-2.9,2.9v2.9c0,1.6,1.3,2.9,2.9,2.9s2.9-1.3,2.9-2.9v-2.9
		C484.1,444.1,482.7,442.8,481.1,442.8z"/>
	<path style="fill:#113559;" d="M368.2,393c2.4,0,4.4-2,4.4-4.4v-11.7c0-2.4-2-4.4-4.4-4.4s-4.4,2-4.4,4.4v11.7
		C363.8,391,365.8,393,368.2,393z"/>
	<path style="fill:#113559;" d="M412.2,401.8c2.4,0,4.4-2,4.4-4.4v-11.7c0-2.4-2-4.4-4.4-4.4s-4.4,2-4.4,4.4v11.7
		C407.8,399.8,409.8,401.8,412.2,401.8z"/>
	<path style="fill:#113559;" d="M397.5,398.8c2.4,0,4.4-2,4.4-4.4v-11.7c0-2.4-2-4.4-4.4-4.4s-4.4,2-4.4,4.4v11.7
		C393.1,396.8,395.1,398.8,397.5,398.8z"/>
	<path style="fill:#113559;" d="M451.6,366.8l17.5,17.1l12.6-12.1c-4.6-0.1-9.1-1.1-13.4-2.8C463,366.8,457.2,366.1,451.6,366.8z"/>
	<path style="fill:#113559;" d="M382.8,395.9c2.4,0,4.4-2,4.4-4.4v-11.7c0-2.4-2-4.4-4.4-4.4s-4.4,2-4.4,4.4v11.7
		C378.4,393.9,380.4,395.9,382.8,395.9z"/>
	<path style="fill:#113559;" d="M487.3,341.2c-1.5,0.6-3,1.5-4.1,2.7l-11.6,11.6c-1.1,1.1-3,1.1-4.1,0l0,0l-11.6-11.6
		c-1.2-1.2-2.6-2.1-4.1-2.7c-10.2-3.9-19.8,3.6-19.8,13.3c0,3.8,1.5,7.4,4.2,10.1l30.5,30.7v46.1c0,10.5-8.5,19.1-19.1,19.1
		c-13.8,0-24.9,11.2-24.9,24.9c0,10.5-8.5,19.1-19.1,19.1c-10,0-18.3-7.7-19-17.6h20.5v-35.2c0-0.6,0.2-1.2,0.6-1.8l1.5-2
		c4.3-5.8,6.7-12.8,6.7-20.1v-20.2c-4,0.6-8-1.3-10.2-4.7c-4.6,3.3-11,2.2-14.3-2.4c-0.1-0.2-0.3-0.4-0.4-0.6
		c-4.6,3.3-11,2.2-14.3-2.4c-0.1-0.2-0.3-0.4-0.4-0.6c-3,2.2-7,2.5-10.3,0.9v10.9l5.7,2.9c1.1,0.6,2.2,1.2,3.3,1.9H399
		c1.6,0,2.9,1.3,2.9,2.9c0,1.6-1.3,2.9-2.9,2.9h-19.5c5,5.8,7.8,13.3,7.8,21v5.4c0,1.6-1.3,2.9-2.9,2.9c-1.6,0-2.9-1.3-2.9-2.9v-5.4
		c0-9.9-5.6-19.1-14.5-23.5l-7.3-3.7c-1-0.5-1.6-1.5-1.6-2.6v-27.4c0-2.7-2.2-4.9-4.9-4.9c-2.5,0-4.5,1.8-4.9,4.2l-2,13.8
		c0,0.1,0,0.2-0.1,0.3l-1.4,5.8c-0.9,3.7-1.4,7.6-1.4,11.4v2.4c0,12.5,5,24.5,13.8,33.3c0.6,0.6,0.8,1.3,0.8,2.1v35.2h20.6
		c0.8,13.8,12.7,24.2,26.4,23.4c13.1-0.8,23.4-11.7,23.4-24.8c0-10.5,8.5-19.1,19.1-19.1c13.8,0,24.9-11.2,24.9-24.9v-46.3
		l30.7-30.5c2.7-2.7,4.2-6.3,4.2-10.1C507.2,344.8,497.5,337.3,487.3,341.2z M372.6,469.2v5.9h5.9v5.9h-8.8c-1.6,0-2.9-1.3-2.9-2.9
		v-11.7c0-1.6,1.3-2.9,2.9-2.9h23.5c1.6,0,2.9,1.3,2.9,2.9V478c0,1.6-1.3,2.9-2.9,2.9h-8.8v-5.9h5.9v-5.9H372.6z M478.7,355.7
		l2.9-2.9c1.1-1.1,3-1.1,4.1,0c1.1,1.1,1.1,3,0,4.1l-2.9,2.9c-1.1,1.1-3,1.1-4.1,0C477.5,358.7,477.5,356.8,478.7,355.7z
		 M491.6,370.4L471,390.1c-1.1,1.1-2.9,1.1-4.1,0l-23.9-23.3l0,0c-1.1-2,0-4,1.7-4.5c8.5-2.4,17.5-2,25.7,1.3
		c5.9,2.3,12.4,3,18.6,1.9c1.6-0.3,3.1,0.8,3.4,2.3C492.6,368.7,492.3,369.7,491.6,370.4L491.6,370.4z M494.6,348.1l-2.9,2.9
		c-1.1,1.1-3,1.1-4.1,0c-1.1-1.1-1.1-3,0-4.1l0,0l2.9-2.9c1.1-1.1,3-1.1,4.1,0C495.7,345.1,495.7,346.9,494.6,348.1z"/>
</g>
</svg>
